<svg width="12" height="13" viewBox="0 0 12 13" fill="none" xmlns="http://www.w3.org/2000/svg">
<rect x="0.25" y="0.75" width="11.5" height="11.5" stroke="#ED0977" stroke-width="0.5"/>
<path d="M6.54084 9.46051L9.45735 6.60098C9.51422 6.54522 9.51422 6.45515 9.45735 6.39938L6.54084 3.53987C6.4825 3.48554 6.39063 3.48696 6.33522 3.54273C6.28126 3.59849 6.28126 3.68571 6.33522 3.74147L9.00237 6.35649L2.64583 6.35649C2.56562 6.35649 2.5 6.42083 2.5 6.49947C2.5 6.57811 2.56562 6.64245 2.64583 6.64245L9.00237 6.64245L6.33522 9.25748C6.27981 9.31467 6.28126 9.40475 6.33814 9.45907C6.39501 9.5134 6.48397 9.5134 6.54084 9.46051Z" fill="white"/>
</svg>
