<svg width="958" height="416" viewBox="0 0 958 416" fill="none" xmlns="http://www.w3.org/2000/svg">
<rect y="0.715141" width="958" height="414.403" fill="#622F8C"/>
<mask id="mask0_44_712" style="mask-type:alpha" maskUnits="userSpaceOnUse" x="0" y="0" width="958" height="416">
<rect y="0.715141" width="958" height="414.403" fill="#622F8C"/>
</mask>
<g mask="url(#mask0_44_712)">
<mask id="mask1_44_712" style="mask-type:luminance" maskUnits="userSpaceOnUse" x="-3" y="0" width="946" height="416">
<path d="M934.437 355.208C956.029 266.84 931.77 174.2 866.306 95.0117C837.577 60.2674 798.7 26.7519 742.773 10.029C686.845 -6.69385 611.137 -1.45734 574.803 30.2894C546.485 55.0339 544.765 91.6106 505.983 109.759C475.486 124.031 431.805 121.049 398.148 110.005C364.491 98.9618 337.775 81.2135 308.855 65.6738C276.45 48.2653 239.743 33.1231 198.419 26.9521C157.095 20.7811 110.483 24.6858 77.8542 41.9214C48.528 57.4125 33.896 81.2529 23.0546 104.471C0.941638 151.818 -10.3108 202.093 2.94932 250.757C16.2047 299.418 56.0519 346.404 120.316 374.243C184.581 402.082 274.275 407.749 340.887 382.228C387.01 364.556 417.727 334.896 453.889 309.551C490.051 284.206 539.134 261.333 592.695 264.998C646.123 268.651 686.142 297.334 715.201 326.025C744.259 354.717 769.972 386.755 815.349 405.022C830.154 410.98 847.166 415.301 864.695 415.113C911.77 414.615 928.472 379.616 934.437 355.208Z" fill="white"/>
</mask>
<g mask="url(#mask1_44_712)">
<g opacity="0.44">
<path d="M938.094 326.477C938.094 286.67 938.116 246.875 938.143 207.07C938.179 138.436 938.228 69.8045 938.143 1.17015L942.623 1.1674C942.709 69.8017 942.664 138.436 942.623 207.07C942.574 276.309 942.538 345.536 942.623 414.763L938.143 414.763C938.107 385.337 938.094 355.903 938.094 326.477Z" fill="url(#paint0_linear_44_712)"/>
<path d="M919.475 325.697C919.475 285.581 919.583 245.581 919.69 206.343C919.869 139.101 920.053 69.5674 919.699 1.17291L924.179 1.16464C924.538 69.5646 924.35 139.101 924.17 206.345C923.991 274.649 923.803 345.277 924.179 414.755L919.699 414.766C919.533 385.199 919.475 355.412 919.475 325.697Z" fill="url(#paint1_linear_44_712)"/>
<path d="M905.728 414.763L905.728 1.17012L901.247 1.17012L901.247 414.763L905.728 414.763Z" fill="url(#paint2_linear_44_712)"/>
<path d="M882.276 87.2746C882.276 58.5657 882.415 29.7907 882.8 1.15903L887.28 1.18109C886.358 69.8127 886.837 139.318 887.298 206.535C887.769 274.695 888.253 345.183 887.28 414.771L882.8 414.749C883.777 345.174 883.284 274.701 882.823 206.546C882.549 167.363 882.276 127.388 882.276 87.2746Z" fill="url(#paint3_linear_44_712)"/>
<path d="M863.023 87.3051C863.023 58.6376 863.377 29.857 864.354 1.13992L868.834 1.19783C866.491 70.061 867.709 139.374 868.892 206.406C870.079 274.47 871.325 344.847 868.834 414.791L864.354 414.733C866.845 344.83 865.599 274.478 864.412 206.436C863.722 167.324 863.023 127.429 863.023 87.3051Z" fill="url(#paint4_linear_44_712)"/>
<path d="M835.556 131.149C835.556 105.702 838.257 80.5277 841.03 54.6285C842.885 37.31 844.807 19.4014 845.909 1.11786L850.389 1.21988C849.278 19.5448 847.356 37.4727 845.501 54.8105C839.973 106.416 834.754 155.162 850.671 208.758C866.589 262.343 861.218 310.204 855.532 360.883C853.579 378.273 851.563 396.256 850.389 414.815L845.909 414.708C847.092 396.11 849.112 378.105 851.066 360.693C856.733 310.199 862.091 262.509 846.263 209.254C838.257 182.296 835.556 156.585 835.556 131.149Z" fill="url(#paint5_linear_44_712)"/>
<path d="M813.661 129.315C813.661 103.507 817.285 78.3216 821.013 52.4114C823.378 35.9366 825.829 18.9021 827.464 1.09006L831.935 1.24723C830.295 19.1034 827.845 36.16 825.475 52.6568C818.065 104.177 811.067 152.834 832.32 209.069C853.641 265.478 846.782 310.584 838.839 362.816C836.312 379.414 833.705 396.573 831.935 414.843L827.464 414.68C829.238 396.361 831.85 379.177 834.377 362.556C842.288 310.565 849.107 265.663 827.952 209.692C817.263 181.403 813.661 155.049 813.661 129.315Z" fill="url(#paint6_linear_44_712)"/>
<path d="M791.252 127.994C791.252 102.542 795.831 77.8503 800.732 51.3611C803.693 35.3743 806.757 18.8416 809.02 1.06267L813.482 1.27774C811.22 19.1036 808.155 35.6611 805.185 51.6726C795.374 104.648 786.893 150.397 813.966 209.409C841.214 268.801 832.54 312.65 822.491 363.42C819.284 379.619 815.968 396.369 813.477 414.873L809.015 414.647C811.515 396.091 814.83 379.313 818.043 363.086C828.029 312.611 836.657 269.021 809.651 210.156C795.929 180.231 791.252 153.723 791.252 127.994Z" fill="url(#paint7_linear_44_712)"/>
<path d="M768.501 126.743C768.501 101.861 774.02 77.9358 780.176 51.2398C783.818 35.4516 787.586 19.1257 790.569 1.02965L795.022 1.30813C792.03 19.4593 788.258 35.8156 784.611 51.6286C772.201 105.437 762.394 147.938 795.614 209.767C829.178 272.222 819.183 312.311 806.536 363.069C802.527 379.153 798.383 395.785 795.027 414.909L790.574 414.614C793.943 395.429 798.096 378.767 802.11 362.65C815.156 310.295 824.582 272.46 791.367 210.633C774.351 178.968 768.501 152.349 768.501 126.743Z" fill="url(#paint8_linear_44_712)"/>
<path d="M736.164 118.101C736.164 110.91 736.935 103.397 738.597 95.4087C741.899 79.5323 748.695 63.8075 755.267 48.5983C761.933 33.1685 768.828 17.2121 772.139 0.996504L776.583 1.34116C773.237 17.7387 766.302 33.7889 759.595 49.3069C753.063 64.4251 746.307 80.0617 743.046 95.7561C733.982 139.365 751.974 168.786 776.888 209.491L777.282 210.137C779.872 214.369 782.492 218.527 785.077 222.638C803.065 251.209 820.058 278.192 814.762 310.857C811.734 329.541 803.311 347.896 795.171 365.645C787.833 381.631 780.248 398.164 776.583 414.942L772.148 414.576C775.853 397.602 783.483 380.975 790.861 364.895C798.957 347.259 807.321 329.025 810.314 310.582C815.475 278.581 798.692 251.887 780.907 223.633C778.317 219.514 775.692 215.348 773.098 211.107L772.704 210.462C752.082 176.795 736.164 150.783 736.164 118.101Z" fill="url(#paint9_linear_44_712)"/>
<path d="M712.133 117.569C712.133 110.16 713.06 102.374 715.072 94.0245C718.876 78.2335 726.72 62.6879 734.305 47.6552C741.93 32.5591 749.806 16.9529 753.695 0.963361L758.121 1.37144C754.187 17.5677 746.258 33.276 738.588 48.4714C731.052 63.4048 723.257 78.8484 719.503 94.4271C709.109 137.625 728.337 165.769 754.971 204.71L758.927 210.503C762.364 215.549 765.885 220.496 769.361 225.382C789.477 253.649 808.486 280.354 802.169 313.129C798.625 331.584 788.921 349.526 779.531 366.88C771.122 382.425 762.431 398.5 758.116 414.972L753.699 414.537C758.067 397.841 766.821 381.656 775.284 366.006C784.598 348.787 794.23 330.98 797.725 312.804C803.858 280.77 785.118 254.399 765.258 226.484C761.772 221.585 758.246 216.624 754.797 211.565L750.841 205.774C729.036 173.9 712.133 149.181 712.133 117.569Z" fill="url(#paint10_linear_44_712)"/>
<path d="M688.379 116.574C688.379 109.057 689.437 101.158 691.753 92.7011C696.045 77.0204 704.888 61.6981 713.436 46.8805C721.98 32.0739 730.814 16.7654 735.254 0.935834L739.672 1.40457C735.16 17.4658 726.263 32.8873 717.657 47.8042C709.171 62.5115 700.395 77.718 696.17 93.1588C684.401 136.192 704.915 163.472 733.346 201.231C735.707 204.371 738.121 207.578 740.568 210.867C744.765 216.498 749.178 222.089 753.443 227.499C775.691 255.698 796.703 282.317 789.338 315.322C785.274 333.533 774.365 351.028 763.819 367.944C754.371 383.098 744.6 398.771 739.663 415.017L735.259 414.509C740.263 398.015 750.115 382.224 759.635 366.954C770.091 350.185 780.906 332.844 784.902 314.944C792.088 282.78 771.355 256.514 749.416 228.707C745.137 223.283 740.715 217.675 736.5 212.014C734.054 208.73 731.639 205.526 729.278 202.389C706.936 172.706 688.379 148.051 688.379 116.574Z" fill="url(#paint11_linear_44_712)"/>
<path d="M664.873 116.096C664.873 108.379 666.087 100.231 668.771 91.4656C673.524 75.9201 683.264 60.8543 692.69 46.282C702.111 31.7153 711.851 16.6495 716.811 0.905362L721.21 1.42925C716.17 17.427 706.35 32.6141 696.847 47.2994C687.506 61.7476 677.843 76.6893 673.17 91.9702C660.017 134.978 682.986 163.092 712.062 198.685C715.368 202.739 718.764 206.897 722.209 211.192C727.061 217.247 732.249 223.283 737.266 229.123C761.584 257.402 784.563 284.112 776.1 317.342C771.53 335.325 759.541 352.346 747.942 368.81C737.508 383.619 726.72 398.936 721.201 415.044L716.815 414.473C722.424 398.095 733.306 382.652 743.825 367.715C755.312 351.411 767.189 334.553 771.669 316.918C779.881 284.597 757.257 258.276 733.306 230.411C728.275 224.557 723.069 218.505 718.19 212.411C714.75 208.121 711.363 203.971 708.056 199.926C684.482 171.066 664.873 147.053 664.873 116.096Z" fill="url(#paint12_linear_44_712)"/>
<path d="M641.855 115.666C641.855 107.764 643.23 99.3983 646.263 90.3572C651.433 74.9495 661.961 60.1567 672.14 45.8519C682.377 31.4754 692.954 16.6136 698.375 0.883298L702.761 1.45681C697.246 17.4629 686.57 32.457 676.248 46.9548C665.698 61.7835 655.729 75.7877 650.649 90.9114C636.196 133.983 660.465 161.735 691.189 196.877C695.311 201.592 699.553 206.447 703.845 211.493C709.235 217.838 715.104 224.193 720.771 230.345C745.855 257.542 771.808 285.656 762.306 319.157C757.27 336.925 744.345 353.479 731.846 369.488C720.511 384.008 708.791 399.016 702.752 415.069L698.384 414.448C704.535 398.095 716.367 382.944 727.805 368.294C740.743 351.723 752.96 336.075 757.893 318.682C767.081 286.188 742.705 259.718 716.873 231.704C711.184 225.536 705.301 219.156 699.871 212.77C695.593 207.735 691.359 202.89 687.242 198.184C662.481 169.864 641.855 146.267 641.855 115.666Z" fill="url(#paint13_linear_44_712)"/>
<path d="M619.468 115.308C619.468 107.243 620.986 98.6842 624.351 89.4059C629.888 74.1361 641.053 59.63 651.85 45.6037C662.799 31.3761 674.124 16.6632 679.94 0.861249L684.308 1.47061C678.389 17.5704 666.956 32.4211 655.904 46.7838C644.722 61.3147 634.153 75.0377 628.732 90.007C613.088 133.167 638.53 160.718 670.746 195.603C675.545 200.8 680.491 206.155 685.468 211.744C691.292 218.281 697.716 224.871 703.93 231.241C730.64 258.634 758.247 286.965 747.799 320.693C742.347 338.287 728.669 354.389 715.444 369.96C703.317 384.24 690.777 399.002 684.299 415.091L679.949 414.429C686.561 398.018 699.226 383.106 711.47 368.683C725.148 352.578 738.068 337.369 743.395 320.174C753.551 287.489 726.357 259.605 700.086 232.658C693.85 226.267 687.403 219.652 681.534 213.065C676.571 207.489 671.634 202.149 666.849 196.962C641.008 168.998 619.468 145.668 619.468 115.308Z" fill="url(#paint14_linear_44_712)"/>
<path d="M597.874 115.06C597.874 106.854 599.518 98.1329 603.174 88.6588C609.011 73.5158 620.632 59.302 631.877 45.5597C643.436 31.4286 655.389 16.815 661.495 0.8531L665.854 1.48452C659.627 17.7635 647.553 32.5233 635.878 46.7977C624.239 61.0281 613.245 74.4671 607.533 89.293C590.858 132.563 617.299 160.012 650.77 194.767C656.088 200.29 661.567 205.981 667.064 211.934C673.21 218.59 680.06 225.326 686.691 231.842C714.723 259.393 743.704 287.878 732.414 321.889C726.617 339.34 712.406 355.021 698.662 370.186C685.875 384.292 672.659 398.878 665.85 415.108L661.508 414.418C668.466 397.844 681.826 383.104 694.75 368.843C708.952 353.171 722.366 338.37 728.024 321.338C739 288.413 710.458 260.396 682.896 233.306C676.243 226.769 669.362 220.008 663.175 213.299C657.691 207.363 652.226 201.685 646.921 196.176C620.184 168.424 597.874 145.258 597.874 115.06Z" fill="url(#paint15_linear_44_712)"/>
<path d="M577.355 114.486C577.355 106.261 579.049 97.5427 582.843 88.1431C588.905 73.1242 600.786 59.2082 612.273 45.7499C624.315 31.6546 636.761 17.0769 643.042 0.847485L647.401 1.48442C640.986 18.0502 628.41 32.7851 616.242 47.032C604.352 60.9563 593.121 74.1085 587.193 88.8049C569.712 132.171 596.888 159.584 631.304 194.285C636.962 199.987 642.809 205.882 648.642 212.047C654.999 218.764 662.136 225.574 669.035 232.162C697.994 259.812 727.939 288.399 716 322.678C709.952 340.027 695.445 355.33 681.414 370.128C668.135 384.138 654.403 398.624 647.392 415.108L643.06 414.407C650.223 397.563 664.112 382.908 677.543 368.738C692.031 353.455 705.718 339.017 711.609 322.102C723.199 288.931 693.734 260.832 665.267 233.656C658.337 227.044 651.173 220.203 644.771 213.437C638.956 207.294 633.119 201.412 627.478 195.721C600.997 169.025 577.355 145.191 577.355 114.486Z" fill="url(#paint16_linear_44_712)"/>
<path d="M557.792 114.572C557.792 106.25 559.561 97.427 563.517 87.8979C569.713 72.9892 581.626 59.3627 593.148 46.1857C605.504 32.0629 618.272 17.4603 624.594 0.8559L628.957 1.48732C622.506 18.4474 609.59 33.2126 597.1 47.4954C585.178 61.1246 573.92 74.0012 567.863 88.5844C549.822 132.05 577.437 159.455 612.404 194.147C618.214 199.91 624.222 205.866 630.203 212.094C636.663 218.825 643.925 225.644 650.946 232.242C680.353 259.878 710.754 288.468 698.398 323.014C692.207 340.3 677.669 355.288 663.611 369.786C650.032 383.79 635.987 398.272 628.953 415.11L624.612 414.427C631.807 397.202 646.017 382.544 659.767 368.374C674.278 353.408 687.991 339.271 694.021 322.424C705.965 288.992 676.097 260.918 647.196 233.756C640.149 227.135 632.86 220.283 626.346 213.5C620.392 207.297 614.397 201.352 608.6 195.603C581.76 168.973 557.792 145.203 557.792 114.572Z" fill="url(#paint17_linear_44_712)"/>
<path d="M538.866 114.561C538.866 106.184 540.671 97.2975 544.726 87.6884C550.989 72.8432 562.906 59.3628 574.429 46.3263C586.906 32.2118 599.808 17.6147 606.147 0.858716L610.515 1.48462C604.037 18.6074 590.987 33.3699 578.367 47.6471C566.445 61.1302 555.187 73.8661 549.067 88.3832C530.681 131.959 558.578 159.32 593.876 193.96C599.705 199.678 605.731 205.593 611.725 211.769C618.217 218.458 625.474 225.216 632.495 231.751C662.036 259.258 692.59 287.691 680.216 322.455C674.029 339.839 659.406 354.955 645.263 369.574C631.634 383.661 617.545 398.23 610.498 415.11L606.156 414.427C613.36 397.161 627.62 382.42 641.41 368.165C656.015 353.069 669.805 338.816 675.839 321.865C687.801 288.248 657.785 260.303 628.754 233.273C621.707 226.713 614.418 219.928 607.872 213.189C601.905 207.037 595.888 201.137 590.073 195.429C563.027 168.877 538.866 145.169 538.866 114.561Z" fill="url(#paint18_linear_44_712)"/>
<path d="M519.585 114.291C519.585 105.884 521.44 96.9445 525.602 87.2719C531.959 72.5012 543.957 59.1752 555.556 46.2904C568.207 32.2365 581.294 17.7056 587.705 0.8531L592.073 1.48176C585.518 18.7065 572.28 33.4084 559.48 47.6277C547.483 60.9509 536.152 73.5351 529.939 87.9778C511.176 131.576 539.41 158.771 575.147 193.196C581.047 198.884 587.154 204.763 593.224 210.906C599.778 217.532 607.049 224.199 614.083 230.648C643.862 257.951 674.658 286.196 662.387 321.2C656.218 338.825 641.394 354.227 627.062 369.124C613.339 383.385 599.147 398.134 592.059 415.105L587.718 414.421C594.967 397.067 609.321 382.147 623.209 367.718C638.011 352.335 651.993 337.802 658.01 320.618C669.896 286.748 639.624 259.009 610.36 232.187C603.304 225.712 596.002 219.021 589.398 212.34C583.345 206.224 577.257 200.356 571.37 194.682C544.011 168.331 519.585 144.797 519.585 114.291Z" fill="url(#paint19_linear_44_712)"/>
<path d="M499.98 113.794C499.98 105.368 501.889 96.4013 506.176 86.6763C512.645 71.9855 524.795 58.8277 536.542 46.1056C549.413 32.1593 562.728 17.7414 569.26 0.8503L573.619 1.48723C566.944 18.7616 553.468 33.3532 540.44 47.465C528.299 60.6172 516.825 73.0415 510.499 87.396C491.32 130.933 519.943 157.85 556.2 191.919C562.235 197.588 568.467 203.45 574.676 209.577C581.302 216.125 588.6 222.679 595.665 229.018C625.78 256.062 656.917 284.018 644.847 319.353C638.705 337.327 623.59 353.16 608.971 368.465C595.105 382.982 580.769 397.993 573.61 415.108L569.269 414.418C576.585 396.929 591.082 381.75 605.105 367.067C620.207 351.257 634.472 336.324 640.461 318.787C652.136 284.589 622.913 258.361 591.969 230.579C584.886 224.215 577.557 217.639 570.873 211.038C564.695 204.936 558.472 199.088 552.455 193.43C524.737 167.39 499.98 144.124 499.98 113.794Z" fill="url(#paint20_linear_44_712)"/>
<path d="M480.099 113.105C480.099 104.681 482.066 95.6954 486.496 85.9291C493.109 71.3293 505.46 58.3508 517.404 45.8024C530.544 32.0049 544.123 17.736 550.812 0.844822L555.162 1.49554C548.321 18.781 534.567 33.2264 521.275 47.1948C508.928 60.1651 497.271 72.4157 490.811 86.6681C471.148 130.098 500.246 156.634 537.099 190.226C543.308 195.881 549.723 201.732 556.103 207.856C562.832 214.317 570.175 220.741 577.271 226.953C607.794 253.677 639.338 281.319 627.551 317.003C621.454 335.439 605.957 351.811 590.967 367.644C576.926 382.478 562.411 397.814 555.162 415.108L550.821 414.418C558.227 396.758 572.903 381.254 587.096 366.257C602.584 349.895 617.211 334.443 623.161 316.452C634.612 281.9 604.963 255.987 573.607 228.536C566.483 222.299 559.118 215.85 552.335 209.342C545.983 203.246 539.581 197.412 533.389 191.768C505.25 166.119 480.099 143.201 480.099 113.105Z" fill="url(#paint21_linear_44_712)"/>
<path d="M460.004 112.256C460.004 103.846 462.038 94.8545 466.612 85.0579C473.381 70.5573 485.984 57.7663 498.178 45.3971C511.605 31.7761 525.493 17.6891 532.37 0.833851L536.72 1.50663C529.673 18.7617 515.61 33.0307 502.013 46.8254C489.415 59.6026 477.521 71.6713 470.922 85.8189C450.717 129.097 480.357 155.178 517.873 188.202C524.288 193.849 530.919 199.687 537.513 205.808C544.354 212.166 551.747 218.45 558.888 224.524C591.319 252.105 621.958 278.167 610.458 314.235C604.419 333.211 588.47 350.229 573.049 366.687C558.803 381.885 544.077 397.602 536.72 415.105L532.379 414.416C539.892 396.551 554.775 380.669 569.169 365.308C585.114 348.296 600.171 332.229 606.067 313.706C617.178 278.782 587.108 253.216 555.263 226.14C548.086 220.038 540.672 213.732 533.777 207.33C527.218 201.233 520.606 195.413 514.204 189.78C485.58 164.592 460.004 142.079 460.004 112.256Z" fill="url(#paint22_linear_44_712)"/>
<path d="M439.737 111.28C439.737 102.892 441.838 93.9086 446.565 84.0899C453.5 69.6941 466.398 57.0989 478.866 44.9199C492.611 31.4975 506.822 17.6173 513.927 0.825428L518.259 1.52026C510.984 18.7257 496.585 32.7906 482.661 46.3896C469.785 58.9655 457.622 70.8439 450.861 84.873C430.105 127.956 460.31 153.54 498.547 185.933C505.196 191.566 512.068 197.392 518.9 203.511C525.875 209.764 533.326 215.902 540.534 221.836C573.503 248.995 604.648 274.657 593.52 311.152C587.552 330.732 571.093 348.478 555.18 365.639C540.709 381.24 525.746 397.375 518.264 415.11L513.923 414.415C521.557 396.325 536.672 380.029 551.286 364.269C567.746 346.523 583.287 329.764 589.116 310.645C599.868 275.313 569.305 250.147 536.941 223.487C529.71 217.531 522.233 211.369 515.204 205.074C508.408 198.983 501.553 193.174 494.923 187.554C465.78 162.866 439.737 140.796 439.737 111.28Z" fill="url(#paint23_linear_44_712)"/>
<path d="M419.34 110.213C419.34 101.861 421.513 92.8859 426.405 83.0479C433.515 68.7596 446.727 56.3684 459.508 44.3825C473.589 31.1751 488.145 17.5182 495.488 0.806324L499.811 1.52598C492.28 18.6625 477.523 32.5068 463.254 45.8962C450.069 58.2626 437.614 69.9452 430.693 83.8558C409.358 126.723 440.159 151.776 479.144 183.49C486.053 189.11 493.194 194.916 500.277 201.032C507.387 207.167 514.904 213.153 522.175 218.938C555.745 245.653 587.463 270.893 576.702 307.836C570.82 328.06 553.814 346.592 537.363 364.514C522.655 380.545 507.436 397.119 499.82 415.108L495.488 414.413C503.247 396.077 518.609 379.34 533.465 363.158C550.476 344.62 566.546 327.114 572.294 307.353C582.692 271.63 551.574 246.853 518.632 220.625C511.334 214.819 503.789 208.813 496.63 202.634C489.583 196.552 482.464 190.756 475.578 185.156C445.884 161.002 419.34 139.407 419.34 110.213Z" fill="url(#paint24_linear_44_712)"/>
<path d="M398.864 109.093C398.864 100.777 401.113 91.8214 406.175 81.9723C413.464 67.7971 426.403 56.1531 440.098 43.8253C454.524 30.844 469.443 17.4188 477.036 0.795101L481.351 1.54233C473.556 18.6016 458.426 32.2171 443.794 45.3832C430.287 57.5373 417.532 69.0159 410.445 82.805C388.533 125.438 419.938 149.948 459.703 180.97C466.876 186.564 474.286 192.349 481.638 198.451C488.891 204.473 496.48 210.305 503.827 215.946C538.006 242.201 570.302 266.981 559.94 304.389C554.152 325.289 536.559 344.648 519.552 363.37C504.584 379.839 489.115 396.865 481.36 415.116L477.028 414.415C484.926 395.829 500.539 378.642 515.641 362.024C533.239 342.654 549.864 324.36 555.518 303.928C565.549 267.769 533.857 243.433 500.328 217.675C492.954 212.011 485.338 206.16 478.036 200.097C470.724 194.028 463.332 188.26 456.182 182.682C425.928 159.069 398.864 137.956 398.864 109.093Z" fill="url(#paint25_linear_44_712)"/>
<path d="M378.372 107.954C378.372 99.6796 380.692 90.7378 385.925 80.8805C393.393 66.8155 406.65 55.3728 420.686 43.2573C435.466 30.5021 450.743 17.314 458.605 0.78133L462.902 1.55613C454.833 18.5327 439.328 31.9166 424.337 44.8565C410.507 56.7956 397.443 68.0729 390.19 81.7352C367.664 124.14 399.701 148.095 440.255 178.422C447.696 183.986 455.389 189.744 463.009 195.826C470.401 201.735 478.08 207.421 485.504 212.921C520.305 238.71 553.184 263.074 543.211 300.89C537.531 322.471 519.35 342.674 501.766 362.209C486.552 379.119 470.818 396.601 462.924 415.11L458.592 414.41C466.625 395.567 482.497 377.934 497.851 360.874C516.049 340.655 533.234 321.556 538.794 300.449C548.39 263.873 517.666 241.07 482.058 214.683C474.613 209.166 466.911 203.458 459.461 197.511C451.885 191.464 444.22 185.726 436.796 180.176C405.956 157.114 378.372 136.484 378.372 107.954Z" fill="url(#paint26_linear_44_712)"/>
<path d="M357.899 106.829C357.899 98.5907 360.296 89.6708 365.703 79.7998C373.346 65.8507 386.912 54.6092 401.275 42.706C416.4 30.1741 432.039 17.2149 440.157 0.767696L444.445 1.57007C436.103 18.475 420.226 31.63 404.872 44.3521C390.729 56.0733 377.36 67.1466 369.946 80.6821C346.842 122.866 379.484 146.292 420.812 175.946C428.523 181.475 436.488 187.193 444.369 193.246C451.909 199.041 459.664 204.586 467.168 209.949C504.119 236.367 536.022 259.192 526.448 297.441C520.879 319.697 502.108 340.738 483.954 361.087C468.485 378.422 452.495 396.347 444.467 415.113L440.135 414.413C448.302 395.319 464.43 377.239 480.025 359.761C497.995 339.622 516.569 318.799 522.022 297.021C531.268 260.021 499.998 237.649 463.772 211.747C456.241 206.367 448.459 200.803 440.87 194.969C433.043 188.952 425.095 183.253 417.417 177.741C386.002 155.203 357.899 135.042 357.899 106.829Z" fill="url(#paint27_linear_44_712)"/>
<path d="M337.498 105.751C337.498 97.5511 339.971 88.6423 345.544 78.763C353.357 64.9186 367.223 53.8757 381.9 42.1821C397.36 29.8653 413.35 17.1294 421.723 0.756611L425.992 1.5838C417.382 18.4281 401.146 31.3625 385.443 43.8695C370.995 55.3784 357.349 66.2504 349.777 79.6674C326.073 121.65 359.333 144.577 401.433 173.597C409.389 179.081 417.619 184.753 425.741 190.769C433.429 196.463 441.274 201.879 448.859 207.117C486.41 233.05 518.842 255.453 509.626 294.129C504.16 317.028 484.824 338.877 466.12 360.009C450.418 377.755 434.173 396.102 426.019 415.116L421.687 414.41C429.984 395.073 446.354 376.575 462.187 358.688C480.703 337.769 499.846 316.14 505.191 293.729C514.138 256.299 482.32 234.37 445.512 208.951C437.905 203.696 430.033 198.261 422.292 192.529C414.223 186.554 406.02 180.898 398.09 175.431C366.112 153.389 337.498 133.669 337.498 105.751Z" fill="url(#paint28_linear_44_712)"/>
<path d="M317.22 104.756C317.22 96.5859 319.756 87.6909 325.504 77.7923C333.474 64.05 347.609 53.2001 362.572 41.7104C378.351 29.5949 394.672 17.0658 403.278 0.742702L407.538 1.5947C398.677 18.4004 382.101 31.128 366.067 43.4365C351.345 54.7414 337.439 65.4148 329.72 78.7187C305.447 120.538 339.289 143.005 382.132 171.443C390.317 176.878 398.789 182.5 407.126 188.467C414.953 194.067 422.883 199.364 430.548 204.49C468.669 229.964 501.606 251.973 492.691 291.043C487.337 314.541 467.464 337.148 448.249 359.008C432.318 377.129 415.849 395.867 407.574 415.113L403.242 414.407C411.656 394.844 428.254 375.962 444.311 357.698C463.338 336.051 483.014 313.667 488.256 290.66C496.88 252.861 464.605 231.321 427.255 206.356C419.563 201.217 411.611 195.901 403.735 190.267C395.447 184.339 387.011 178.737 378.848 173.318C346.323 151.729 317.22 132.409 317.22 104.756Z" fill="url(#paint29_linear_44_712)"/>
<path d="M297.106 103.884C297.106 95.7339 299.718 86.8416 305.618 76.9209C313.745 63.2724 328.108 52.6072 343.318 41.3133C359.393 29.3771 376.014 17.0354 384.839 0.731617L389.091 1.60292C380.001 18.3975 363.107 30.9404 346.768 43.0725C331.813 54.1761 317.688 64.6675 309.83 77.8694C285.01 119.573 319.403 141.634 362.945 169.568C371.332 174.951 380.005 180.515 388.531 186.426C396.478 191.938 404.489 197.13 412.23 202.151C450.862 227.201 484.238 248.829 475.601 288.283C470.346 312.316 449.997 335.598 430.321 358.117C414.193 376.574 397.513 395.66 389.131 415.116L384.799 414.41C393.316 394.64 410.125 375.411 426.374 356.81C445.862 334.509 466.014 311.45 471.161 287.917C479.494 249.761 446.812 228.588 408.978 204.051C401.209 199.014 393.177 193.805 385.175 188.257C376.703 182.384 368.066 176.839 359.706 171.479C326.67 150.278 297.106 131.308 297.106 103.884Z" fill="url(#paint30_linear_44_712)"/>
<path d="M277.208 103.162C277.208 95.0255 279.882 86.1278 285.939 76.174C294.196 62.6054 308.747 52.1112 324.15 41.0048C340.484 29.2285 357.378 17.0495 366.388 0.726398L370.63 1.61149C361.343 18.4337 344.167 30.8194 327.559 42.7943C312.417 53.7104 298.116 64.0254 290.128 77.1418C264.807 118.766 299.702 140.493 343.876 168.014C352.423 173.341 361.272 178.85 369.945 184.703C378.009 190.144 386.091 195.247 393.904 200.183C432.971 224.858 466.701 246.194 458.296 285.937C453.117 310.425 432.37 334.281 412.304 357.351C396.001 376.095 379.152 395.476 370.671 415.113L366.339 414.407C374.949 394.458 391.933 374.931 408.353 356.049C428.226 333.197 448.776 309.567 453.848 285.579C461.97 247.12 430.515 227.262 390.688 202.105C382.852 197.155 374.743 192.035 366.634 186.559C358.015 180.744 349.202 175.257 340.681 169.949C307.197 149.082 277.208 130.402 277.208 103.162Z" fill="url(#paint31_linear_44_712)"/>
<path d="M257.582 102.633C257.582 94.4905 260.315 85.5735 266.515 75.5783C274.888 62.0704 289.57 51.7361 305.115 40.7979C321.665 29.1484 338.787 17.1046 347.949 0.720791L352.183 1.61691C342.739 18.5108 325.325 30.7642 308.489 42.6122C293.216 53.3601 278.79 63.5125 270.695 76.5599C244.912 118.159 282.016 140.725 324.98 166.858C333.653 172.13 342.618 177.584 351.399 183.377C359.553 188.757 367.693 193.786 375.564 198.647C414.975 223.005 449.019 244.06 440.758 284.087C435.633 308.936 414.577 333.238 394.21 356.744C377.773 375.712 360.78 395.324 352.232 415.116L347.9 414.405C356.582 394.31 373.701 374.554 390.254 355.446C410.433 332.163 431.292 308.084 436.309 283.742C444.288 245.016 412.556 225.42 372.383 200.591C364.49 195.711 356.327 190.667 348.124 185.255C339.401 179.5 330.472 174.069 321.83 168.816C287.934 148.202 257.582 129.742 257.582 102.633Z" fill="url(#paint32_linear_44_712)"/>
<path d="M238.272 102.327C238.272 94.1678 241.063 85.2121 247.389 75.1618C255.865 61.6952 270.609 51.507 286.218 40.7205C302.937 29.1675 320.23 17.2202 329.499 0.717846L333.733 1.61948C324.168 18.6402 306.575 30.7998 289.564 42.5541C274.229 53.1504 259.749 63.1566 251.564 76.1572C225.351 117.803 262.859 140.217 306.297 166.172C315.029 171.388 324.061 176.784 332.895 182.514C341.116 187.847 349.297 192.818 357.204 197.627C398.501 222.732 431.125 242.559 422.927 282.843C417.828 307.932 396.571 332.53 376.007 356.314C359.48 375.436 342.389 395.205 333.787 415.113L329.455 414.402C338.191 394.191 355.403 374.275 372.051 355.018C392.422 331.451 413.487 307.083 418.478 282.496C426.399 243.591 394.469 224.157 354.055 199.587C346.121 194.762 337.913 189.774 329.647 184.411C320.875 178.723 311.875 173.346 303.175 168.148C268.929 147.689 238.272 129.37 238.272 102.327Z" fill="url(#paint33_linear_44_712)"/>
<path d="M219.319 102.28C219.319 94.077 222.159 85.0744 228.597 74.9524C237.154 61.5079 251.889 51.4411 267.493 40.7869C284.324 29.289 301.729 17.4024 311.057 0.720791L315.291 1.61691C305.667 18.8306 287.953 30.9296 270.821 42.6315C255.5 53.0954 241.033 62.9803 232.772 75.9588C206.179 117.721 244.008 140.102 287.81 166.012C296.55 171.182 305.587 176.525 314.417 182.194C322.669 187.494 330.863 192.424 338.793 197.197C380.22 222.134 412.947 241.818 404.748 282.284C399.641 307.488 378.312 332.196 357.676 356.094C341.109 375.29 323.973 395.139 315.34 415.116L311.008 414.405C319.771 394.125 337.032 374.134 353.72 354.8C374.163 331.124 395.295 306.642 400.3 281.945C408.238 242.816 376.197 223.567 335.657 199.165C327.709 194.379 319.484 189.432 311.178 184.102C302.41 178.475 293.41 173.148 284.705 168C250.213 147.596 219.319 129.321 219.319 102.28Z" fill="url(#paint34_linear_44_712)"/>
<path d="M202.409 102.379C202.409 94.2643 205.137 85.3638 211.32 75.3797C219.662 61.9076 234.374 51.5071 249.956 40.5C266.416 28.8698 283.431 16.8453 292.611 0.715175L296.835 1.62784C287.373 18.257 270.067 30.4856 253.334 42.3088C238.021 53.1284 223.559 63.3469 215.5 76.3613C189.762 117.936 225.06 139.227 269.753 166.183C278.351 171.366 287.239 176.729 295.98 182.431C304.026 187.687 312.023 192.595 319.755 197.337C360.725 222.475 393.107 242.342 385.209 282.441C380.263 307.667 358.983 332.67 338.401 356.846C322.206 375.871 305.455 395.55 296.88 415.119L292.557 414.402C301.257 394.538 318.12 374.724 334.432 355.567C354.825 331.609 375.913 306.834 380.765 282.11C388.363 243.326 356.693 223.898 316.592 199.287C308.837 194.527 300.818 189.606 292.718 184.317C284.04 178.654 275.188 173.313 266.622 168.146C232.739 147.717 202.409 129.425 202.409 102.379Z" fill="url(#paint35_linear_44_712)"/>
<path d="M187.012 102.928C187.012 94.9068 189.584 86.1248 195.403 76.2924C203.422 62.7375 217.853 51.9455 233.125 40.5221C248.958 28.6823 265.328 16.4372 274.158 0.715175L278.392 1.61681C269.302 17.8048 252.667 30.2429 236.584 42.2757C221.558 53.5117 207.369 64.1245 199.61 77.2354C175.104 118.655 209.229 139.988 252.43 167.004C260.646 172.141 269.14 177.454 277.567 183.123C285.228 188.28 292.827 193.11 300.178 197.778C340.096 223.148 371.608 243.183 364.145 282.843C359.387 308.017 338.613 333.153 318.52 357.464C302.92 376.337 286.787 395.856 278.437 415.116L274.104 414.404C282.585 394.861 298.825 375.212 314.523 356.215C334.437 332.122 355.028 307.21 359.687 282.526C366.949 244.153 336.05 224.543 296.953 199.697C289.583 195.013 281.958 190.168 274.257 184.985C265.888 179.351 257.421 174.057 249.231 168.937C216.401 148.406 187.012 130.032 187.012 102.928Z" fill="url(#paint36_linear_44_712)"/>
<path d="M172.694 104.29C172.694 96.2937 175.145 87.5145 180.646 77.6241C188.253 63.9425 202.142 52.7314 216.841 40.8612C231.858 28.7375 247.377 16.2028 255.705 0.737225L259.957 1.60301C251.4 17.5043 235.639 30.2264 220.402 42.5294C205.932 54.2175 192.258 65.2577 184.88 78.5175C161.906 119.819 194.507 141.287 235.778 168.466C243.398 173.484 251.279 178.673 259.168 184.218C266.274 189.214 273.303 193.91 280.108 198.448C318.498 224.086 348.819 244.335 341.754 283.458C337.224 308.508 317.36 333.633 298.145 357.93C283.32 376.671 267.998 396.052 260.001 415.108L255.66 414.418C263.769 395.092 279.194 375.587 294.113 356.719C313.162 332.637 332.856 307.728 337.3 283.149C344.137 245.264 314.43 225.434 276.815 200.318C269.992 195.766 262.94 191.056 255.799 186.035C247.955 180.523 240.101 175.351 232.507 170.352C199.973 148.922 172.694 130.956 172.694 104.29Z" fill="url(#paint37_linear_44_712)"/>
<path d="M159.674 105.517C159.674 97.6285 161.896 88.9955 166.873 79.3064C173.983 65.4593 187.114 53.796 201.007 41.4489C215.038 28.9832 229.545 16.0929 237.241 0.762356L241.52 1.57576C233.621 17.3143 218.913 30.3839 204.689 43.0205C190.989 55.1912 178.051 66.6863 171.142 80.1391C149.956 121.374 179.256 142.018 219.796 170.586C226.61 175.387 233.653 180.35 240.785 185.652C247.174 190.406 253.482 194.897 259.579 199.237C296.042 225.197 324.835 245.695 318.232 284.242C313.962 309.115 295.339 334.099 277.324 358.261C263.432 376.892 249.069 396.154 241.556 415.089L237.205 414.432C244.822 395.244 259.274 375.858 273.252 357.108C291.114 333.153 309.581 308.376 313.779 283.952C320.203 246.621 291.952 226.496 256.192 201.043C250.077 196.69 243.755 192.187 237.335 187.411C230.243 182.137 223.223 177.187 216.427 172.401C185.541 150.64 159.674 132.412 159.674 105.517Z" fill="url(#paint38_linear_44_712)"/>
<path d="M147.359 107.397C147.359 99.55 149.393 90.9611 153.909 81.2803C160.454 67.2319 173.205 54.5401 185.529 42.2702C198.45 29.4075 211.805 16.1091 218.785 0.795102L223.099 1.54233C215.949 17.2258 202.424 30.6951 189.342 43.7205C176.614 56.3902 164.594 68.3596 158.219 82.0413C138.99 123.285 166.467 144.317 204.48 173.431C210.273 177.868 216.298 182.484 222.423 187.372C227.951 191.79 233.399 195.986 238.663 200.042C272.899 226.421 299.941 247.255 293.803 285.17C289.816 309.807 272.707 334.54 256.162 358.462C243.331 377.01 230.066 396.187 223.13 415.066L218.762 414.457C225.783 395.332 239.129 376.04 252.04 357.381C268.455 333.652 285.43 309.112 289.35 284.895C295.3 248.113 268.764 227.648 235.164 201.76C229.882 197.69 224.425 193.482 218.87 189.052C212.768 184.179 206.765 179.577 200.99 175.155C170.947 152.156 147.359 134.088 147.359 107.397Z" fill="url(#paint39_linear_44_712)"/>
<path d="M135.907 108.977C135.907 101.268 137.677 92.8719 141.575 83.4805C147.493 69.2116 159.087 56.0345 170.301 43.2931C182.007 29.9865 194.117 16.2249 200.313 0.8392L204.663 1.50095C198.328 17.2285 186.08 31.1445 174.243 44.6056C162.649 57.7799 151.7 70.2263 145.916 84.1616C128.757 125.493 154.361 147.146 189.789 177.123C194.39 181.02 199.17 185.062 204.054 189.308C208.592 193.256 213.054 197.037 217.377 200.698C249.168 227.64 274.238 248.937 268.643 286.207C264.965 310.543 249.571 334.942 234.684 358.536C223.018 377.029 210.953 396.154 204.69 415.033L200.299 414.484C206.643 395.371 218.775 376.139 230.513 357.538C245.288 334.121 260.565 309.903 264.185 285.954C269.655 249.695 244.992 228.789 213.753 202.32C209.421 198.647 204.95 194.858 200.402 190.899C195.533 186.661 190.77 182.63 186.174 178.745C157.99 154.905 135.907 136.219 135.907 108.977Z" fill="url(#paint40_linear_44_712)"/>
<path d="M124.789 111.067C124.789 103.427 126.335 95.1273 129.699 85.8408C134.954 71.343 145.277 57.6889 155.258 44.487C165.688 30.6923 176.471 16.4261 181.856 0.883298L186.242 1.45681C180.754 17.3084 169.863 31.718 159.326 45.6506C148.986 59.3212 139.224 72.2336 134.076 86.4419C119.005 127.983 141.576 149.421 175.714 181.874C178.953 184.949 182.286 188.12 185.7 191.409C189.132 194.72 192.505 197.916 195.785 201.029C225.008 228.74 248.116 250.605 242.964 287.332C239.618 311.301 226.079 335.295 212.993 358.495C202.568 376.972 191.789 396.077 186.256 415.008L181.847 414.517C187.438 395.376 198.28 376.166 208.759 357.591C221.76 334.551 235.205 310.725 238.507 287.098C243.52 251.308 221.908 230.86 192.03 202.535C188.742 199.416 185.364 196.212 181.923 192.898C178.519 189.614 175.19 186.449 171.96 183.377C144.761 157.525 124.789 138.538 124.789 111.067Z" fill="url(#paint41_linear_44_712)"/>
<path d="M114.073 112.711C114.073 105.236 115.345 97.1953 118.1 88.3031C122.661 73.5874 131.626 59.4977 140.295 45.8712C149.411 31.5416 158.842 16.7239 163.385 0.930212L167.793 1.41274C163.17 17.4767 153.663 32.4239 144.466 46.8776C135.868 60.3855 126.984 74.354 122.5 88.8214C109.49 130.771 130.456 153.543 162.18 188.012L167.332 193.618C169.585 196.077 171.807 198.479 173.98 200.833C200.569 229.586 221.59 252.304 216.948 288.501C213.956 312.029 202.348 335.549 191.121 358.294C181.986 376.803 172.542 395.944 167.798 414.975L163.371 414.556C168.161 395.335 177.654 376.097 186.838 357.494C197.989 334.893 209.529 311.519 212.486 288.289C216.989 252.946 197.317 231.652 170.087 202.201C167.91 199.844 165.688 197.439 163.43 194.974L158.282 189.371C132.746 161.619 114.073 141.331 114.073 112.711Z" fill="url(#paint42_linear_44_712)"/>
<path d="M103.389 114.348C103.389 107.05 104.411 99.277 106.606 90.7956C110.468 75.8952 118.035 61.425 125.351 47.4318C133.146 32.5204 141.21 17.1016 144.929 0.971518L149.364 1.3603C145.587 17.7248 137.469 33.2566 129.616 48.2783C122.349 62.1695 114.836 76.5377 111.037 91.2285C99.9622 133.939 119.473 158.572 148.988 195.865C198.551 258.48 184.559 300.517 166.836 353.736C160.542 372.643 154.032 392.189 149.373 414.931L144.929 414.586C149.61 391.737 156.138 372.135 162.45 353.179C179.999 300.476 193.86 258.847 144.964 197.07C120.889 166.662 103.389 144.56 103.389 114.348Z" fill="url(#paint43_linear_44_712)"/>
<path d="M100.285 122.069C100.285 99.7322 106.418 78.3963 113.259 54.6092C118.049 37.9387 123.003 20.7029 126.471 1.02137L130.924 1.3164C127.439 21.0916 122.47 38.3743 117.668 55.0862C103.815 103.25 92.8885 141.293 130.633 198.098C170.667 258.359 158.566 303.355 144.566 355.451C139.566 374.052 134.396 393.286 130.929 414.895L126.467 414.625C129.952 392.925 135.14 373.646 140.149 355.002C154.619 301.185 166.043 258.67 126.484 199.143C106.965 169.764 100.285 145.371 100.285 122.069Z" fill="url(#paint44_linear_44_712)"/>
<path d="M87.9346 124.906C87.9346 101.535 92.8492 78.9119 98.1178 54.6478C101.796 37.7071 105.599 20.1873 108.023 1.05999L112.485 1.27506C110.057 20.4795 106.245 38.0352 102.557 55.0145C92.0069 103.642 82.8811 145.638 112.27 200.255C143.281 257.901 133.77 303.625 122.754 356.568C118.91 375.047 114.931 394.155 112.49 414.862L108.019 414.664C110.474 393.882 114.457 374.738 118.309 356.22C129.263 303.606 138.707 258.174 108.019 201.126C93.0284 173.266 87.9346 148.699 87.9346 124.906Z" fill="url(#paint45_linear_44_712)"/>
<path d="M74.8693 127.776C74.8693 103.647 78.5743 80.0642 82.3869 55.8084C85.1421 38.2693 87.9915 20.1347 89.5685 1.09836L94.0396 1.23898C92.4581 20.3387 89.6087 38.5064 86.849 56.0759C79.2732 104.317 72.1186 149.881 93.8961 202.27C116.718 257.151 109.303 305.456 101.463 356.595C98.5958 375.279 95.6345 394.596 94.0395 414.829L89.5684 414.694C91.1633 394.4 94.1291 375.05 97.0009 356.336C104.81 305.439 112.179 257.363 89.555 202.954C78.5654 176.539 74.8693 151.883 74.8693 127.776Z" fill="url(#paint46_linear_44_712)"/>
<path d="M60.9247 131.083C60.9247 107.011 63.4918 83.1251 66.1395 58.5549C68.1421 39.9488 70.2164 20.7084 71.1169 1.12895L75.5969 1.20616C74.6919 20.8408 72.6132 40.1059 70.6106 58.7369C65.3375 107.657 60.3692 153.863 75.5028 204.073C91.2055 256.15 86.0982 304.177 80.6952 355.021C78.6389 374.388 76.5108 394.414 75.5969 414.799L71.1168 414.724C72.0308 394.29 74.1633 374.234 76.2241 354.842C81.6136 304.171 86.694 256.316 71.0989 204.578C63.4873 179.324 60.9247 155.112 60.9247 131.083Z" fill="url(#paint47_linear_44_712)"/>
<path d="M51.9425 89.3371C51.9425 59.972 52.1352 30.5077 52.6683 1.15635L57.1484 1.18668C55.885 70.6013 56.5167 140.689 57.1394 208.474C57.7532 275.925 58.3894 345.674 57.1484 414.78L52.6683 414.746C53.9048 345.671 53.2731 275.931 52.6594 208.488C52.301 169.351 51.9425 129.439 51.9425 89.3371Z" fill="url(#paint48_linear_44_712)"/>
<path d="M34.2231 139.117L34.2231 1.16999L38.7031 1.16999L38.7031 414.763L34.223 414.763L34.2231 139.117Z" fill="url(#paint49_linear_44_712)"/>
<path d="M15.4931 327.467C15.4931 287.351 15.632 247.352 15.7754 208.113C16.0173 140.289 16.2637 70.1546 15.7754 1.17281L20.2555 1.15903C20.7438 70.1546 20.5019 140.289 20.2554 208.118C20.0135 275.84 19.7671 345.867 20.2554 414.752L15.7754 414.763C15.5693 385.789 15.4931 356.595 15.4931 327.467Z" fill="url(#paint50_linear_44_712)"/>
<path d="M-2.73723 327.343C-2.73722 287.547 -2.70138 247.762 -2.67002 207.964C-2.61626 139.032 -2.55802 70.0996 -2.67001 1.1702L1.81005 1.16744C1.92205 70.0996 1.8638 139.034 1.81004 207.964C1.75628 276.896 1.69803 345.831 1.81003 414.757L-2.67003 414.763C-2.71931 385.627 -2.73723 356.482 -2.73723 327.343Z" fill="url(#paint51_linear_44_712)"/>
</g>
</g>
</g>
<defs>
<linearGradient id="paint0_linear_44_712" x1="146.292" y1="-119.42" x2="764.241" y2="553.164" gradientUnits="userSpaceOnUse">
<stop stop-color="#F60C86"/>
<stop offset="1" stop-color="#1E0FF2"/>
</linearGradient>
<linearGradient id="paint1_linear_44_712" x1="140.576" y1="-114.171" x2="758.525" y2="558.413" gradientUnits="userSpaceOnUse">
<stop stop-color="#F60C86"/>
<stop offset="1" stop-color="#1E0FF2"/>
</linearGradient>
<linearGradient id="paint2_linear_44_712" x1="134.865" y1="-108.921" x2="752.814" y2="563.663" gradientUnits="userSpaceOnUse">
<stop stop-color="#F60C86"/>
<stop offset="1" stop-color="#1E0FF2"/>
</linearGradient>
<linearGradient id="paint3_linear_44_712" x1="129.147" y1="-103.672" x2="747.097" y2="568.913" gradientUnits="userSpaceOnUse">
<stop stop-color="#F60C86"/>
<stop offset="1" stop-color="#1E0FF2"/>
</linearGradient>
<linearGradient id="paint4_linear_44_712" x1="123.437" y1="-98.4213" x2="741.387" y2="574.163" gradientUnits="userSpaceOnUse">
<stop stop-color="#F60C86"/>
<stop offset="1" stop-color="#1E0FF2"/>
</linearGradient>
<linearGradient id="paint5_linear_44_712" x1="117.722" y1="-93.1736" x2="735.673" y2="579.412" gradientUnits="userSpaceOnUse">
<stop stop-color="#F60C86"/>
<stop offset="1" stop-color="#1E0FF2"/>
</linearGradient>
<linearGradient id="paint6_linear_44_712" x1="112.007" y1="-87.9237" x2="729.956" y2="584.661" gradientUnits="userSpaceOnUse">
<stop stop-color="#F60C86"/>
<stop offset="1" stop-color="#1E0FF2"/>
</linearGradient>
<linearGradient id="paint7_linear_44_712" x1="106.297" y1="-82.6742" x2="724.247" y2="589.911" gradientUnits="userSpaceOnUse">
<stop stop-color="#F60C86"/>
<stop offset="1" stop-color="#1E0FF2"/>
</linearGradient>
<linearGradient id="paint8_linear_44_712" x1="100.581" y1="-77.4256" x2="718.532" y2="595.161" gradientUnits="userSpaceOnUse">
<stop stop-color="#F60C86"/>
<stop offset="1" stop-color="#1E0FF2"/>
</linearGradient>
<linearGradient id="paint9_linear_44_712" x1="94.8701" y1="-72.1777" x2="712.821" y2="600.408" gradientUnits="userSpaceOnUse">
<stop stop-color="#F60C86"/>
<stop offset="1" stop-color="#1E0FF2"/>
</linearGradient>
<linearGradient id="paint10_linear_44_712" x1="89.1574" y1="-66.9279" x2="707.107" y2="605.656" gradientUnits="userSpaceOnUse">
<stop stop-color="#F60C86"/>
<stop offset="1" stop-color="#1E0FF2"/>
</linearGradient>
<linearGradient id="paint11_linear_44_712" x1="83.445" y1="-61.6816" x2="701.395" y2="610.903" gradientUnits="userSpaceOnUse">
<stop stop-color="#F60C86"/>
<stop offset="1" stop-color="#1E0FF2"/>
</linearGradient>
<linearGradient id="paint12_linear_44_712" x1="77.7323" y1="-56.4332" x2="695.681" y2="616.151" gradientUnits="userSpaceOnUse">
<stop stop-color="#F60C86"/>
<stop offset="1" stop-color="#1E0FF2"/>
</linearGradient>
<linearGradient id="paint13_linear_44_712" x1="72.0179" y1="-51.1845" x2="689.969" y2="621.402" gradientUnits="userSpaceOnUse">
<stop stop-color="#F60C86"/>
<stop offset="1" stop-color="#1E0FF2"/>
</linearGradient>
<linearGradient id="paint14_linear_44_712" x1="66.3063" y1="-45.9349" x2="684.257" y2="626.65" gradientUnits="userSpaceOnUse">
<stop stop-color="#F60C86"/>
<stop offset="1" stop-color="#1E0FF2"/>
</linearGradient>
<linearGradient id="paint15_linear_44_712" x1="60.5944" y1="-40.6857" x2="678.545" y2="631.9" gradientUnits="userSpaceOnUse">
<stop stop-color="#F60C86"/>
<stop offset="1" stop-color="#1E0FF2"/>
</linearGradient>
<linearGradient id="paint16_linear_44_712" x1="54.8823" y1="-35.4367" x2="672.833" y2="637.149" gradientUnits="userSpaceOnUse">
<stop stop-color="#F60C86"/>
<stop offset="1" stop-color="#1E0FF2"/>
</linearGradient>
<linearGradient id="paint17_linear_44_712" x1="49.1655" y1="-30.1862" x2="667.117" y2="642.4" gradientUnits="userSpaceOnUse">
<stop stop-color="#F60C86"/>
<stop offset="1" stop-color="#1E0FF2"/>
</linearGradient>
<linearGradient id="paint18_linear_44_712" x1="43.4543" y1="-24.9379" x2="661.405" y2="647.648" gradientUnits="userSpaceOnUse">
<stop stop-color="#F60C86"/>
<stop offset="1" stop-color="#1E0FF2"/>
</linearGradient>
<linearGradient id="paint19_linear_44_712" x1="37.7388" y1="-19.6879" x2="655.69" y2="652.898" gradientUnits="userSpaceOnUse">
<stop stop-color="#F60C86"/>
<stop offset="1" stop-color="#1E0FF2"/>
</linearGradient>
<linearGradient id="paint20_linear_44_712" x1="32.026" y1="-14.4364" x2="649.976" y2="658.149" gradientUnits="userSpaceOnUse">
<stop stop-color="#F60C86"/>
<stop offset="1" stop-color="#1E0FF2"/>
</linearGradient>
<linearGradient id="paint21_linear_44_712" x1="26.3082" y1="-9.18345" x2="644.259" y2="663.402" gradientUnits="userSpaceOnUse">
<stop stop-color="#F60C86"/>
<stop offset="1" stop-color="#1E0FF2"/>
</linearGradient>
<linearGradient id="paint22_linear_44_712" x1="20.5885" y1="-3.93077" x2="638.538" y2="668.653" gradientUnits="userSpaceOnUse">
<stop stop-color="#F60C86"/>
<stop offset="1" stop-color="#1E0FF2"/>
</linearGradient>
<linearGradient id="paint23_linear_44_712" x1="14.8711" y1="1.32365" x2="632.821" y2="673.908" gradientUnits="userSpaceOnUse">
<stop stop-color="#F60C86"/>
<stop offset="1" stop-color="#1E0FF2"/>
</linearGradient>
<linearGradient id="paint24_linear_44_712" x1="9.15182" y1="6.57648" x2="627.103" y2="679.163" gradientUnits="userSpaceOnUse">
<stop stop-color="#F60C86"/>
<stop offset="1" stop-color="#1E0FF2"/>
</linearGradient>
<linearGradient id="paint25_linear_44_712" x1="3.43068" y1="11.8311" x2="621.381" y2="684.417" gradientUnits="userSpaceOnUse">
<stop stop-color="#F60C86"/>
<stop offset="1" stop-color="#1E0FF2"/>
</linearGradient>
<linearGradient id="paint26_linear_44_712" x1="-2.28878" y1="17.0871" x2="615.661" y2="689.672" gradientUnits="userSpaceOnUse">
<stop stop-color="#F60C86"/>
<stop offset="1" stop-color="#1E0FF2"/>
</linearGradient>
<linearGradient id="paint27_linear_44_712" x1="-8.00793" y1="22.3429" x2="609.941" y2="694.927" gradientUnits="userSpaceOnUse">
<stop stop-color="#F60C86"/>
<stop offset="1" stop-color="#1E0FF2"/>
</linearGradient>
<linearGradient id="paint28_linear_44_712" x1="-13.7249" y1="27.5966" x2="604.227" y2="700.183" gradientUnits="userSpaceOnUse">
<stop stop-color="#F60C86"/>
<stop offset="1" stop-color="#1E0FF2"/>
</linearGradient>
<linearGradient id="paint29_linear_44_712" x1="-19.4451" y1="32.8516" x2="598.505" y2="705.437" gradientUnits="userSpaceOnUse">
<stop stop-color="#F60C86"/>
<stop offset="1" stop-color="#1E0FF2"/>
</linearGradient>
<linearGradient id="paint30_linear_44_712" x1="-25.1618" y1="38.1049" x2="592.788" y2="710.69" gradientUnits="userSpaceOnUse">
<stop stop-color="#F60C86"/>
<stop offset="1" stop-color="#1E0FF2"/>
</linearGradient>
<linearGradient id="paint31_linear_44_712" x1="-30.8821" y1="43.3584" x2="587.068" y2="715.944" gradientUnits="userSpaceOnUse">
<stop stop-color="#F60C86"/>
<stop offset="1" stop-color="#1E0FF2"/>
</linearGradient>
<linearGradient id="paint32_linear_44_712" x1="-36.596" y1="48.609" x2="581.355" y2="721.195" gradientUnits="userSpaceOnUse">
<stop stop-color="#F60C86"/>
<stop offset="1" stop-color="#1E0FF2"/>
</linearGradient>
<linearGradient id="paint33_linear_44_712" x1="-42.3125" y1="53.8601" x2="575.637" y2="726.445" gradientUnits="userSpaceOnUse">
<stop stop-color="#F60C86"/>
<stop offset="1" stop-color="#1E0FF2"/>
</linearGradient>
<linearGradient id="paint34_linear_44_712" x1="-48.0228" y1="59.1085" x2="569.928" y2="731.694" gradientUnits="userSpaceOnUse">
<stop stop-color="#F60C86"/>
<stop offset="1" stop-color="#1E0FF2"/>
</linearGradient>
<linearGradient id="paint35_linear_44_712" x1="-53.7399" y1="64.3594" x2="564.211" y2="736.945" gradientUnits="userSpaceOnUse">
<stop stop-color="#F60C86"/>
<stop offset="1" stop-color="#1E0FF2"/>
</linearGradient>
<linearGradient id="paint36_linear_44_712" x1="-59.4523" y1="69.6087" x2="558.498" y2="742.194" gradientUnits="userSpaceOnUse">
<stop stop-color="#F60C86"/>
<stop offset="1" stop-color="#1E0FF2"/>
</linearGradient>
<linearGradient id="paint37_linear_44_712" x1="-65.1618" y1="74.855" x2="552.788" y2="747.44" gradientUnits="userSpaceOnUse">
<stop stop-color="#F60C86"/>
<stop offset="1" stop-color="#1E0FF2"/>
</linearGradient>
<linearGradient id="paint38_linear_44_712" x1="-70.8727" y1="80.101" x2="547.077" y2="752.685" gradientUnits="userSpaceOnUse">
<stop stop-color="#F60C86"/>
<stop offset="1" stop-color="#1E0FF2"/>
</linearGradient>
<linearGradient id="paint39_linear_44_712" x1="-76.5795" y1="85.3453" x2="541.37" y2="757.93" gradientUnits="userSpaceOnUse">
<stop stop-color="#F60C86"/>
<stop offset="1" stop-color="#1E0FF2"/>
</linearGradient>
<linearGradient id="paint40_linear_44_712" x1="-82.2896" y1="90.5905" x2="535.661" y2="763.177" gradientUnits="userSpaceOnUse">
<stop stop-color="#F60C86"/>
<stop offset="1" stop-color="#1E0FF2"/>
</linearGradient>
<linearGradient id="paint41_linear_44_712" x1="-87.995" y1="95.8334" x2="529.955" y2="768.418" gradientUnits="userSpaceOnUse">
<stop stop-color="#F60C86"/>
<stop offset="1" stop-color="#1E0FF2"/>
</linearGradient>
<linearGradient id="paint42_linear_44_712" x1="-93.7049" y1="101.079" x2="524.245" y2="773.664" gradientUnits="userSpaceOnUse">
<stop stop-color="#F60C86"/>
<stop offset="1" stop-color="#1E0FF2"/>
</linearGradient>
<linearGradient id="paint43_linear_44_712" x1="-99.4168" y1="106.325" x2="518.533" y2="778.91" gradientUnits="userSpaceOnUse">
<stop stop-color="#F60C86"/>
<stop offset="1" stop-color="#1E0FF2"/>
</linearGradient>
<linearGradient id="paint44_linear_44_712" x1="-105.128" y1="111.572" x2="512.822" y2="784.158" gradientUnits="userSpaceOnUse">
<stop stop-color="#F60C86"/>
<stop offset="1" stop-color="#1E0FF2"/>
</linearGradient>
<linearGradient id="paint45_linear_44_712" x1="-110.838" y1="116.82" x2="507.113" y2="789.406" gradientUnits="userSpaceOnUse">
<stop stop-color="#F60C86"/>
<stop offset="1" stop-color="#1E0FF2"/>
</linearGradient>
<linearGradient id="paint46_linear_44_712" x1="-116.551" y1="122.067" x2="501.4" y2="794.653" gradientUnits="userSpaceOnUse">
<stop stop-color="#F60C86"/>
<stop offset="1" stop-color="#1E0FF2"/>
</linearGradient>
<linearGradient id="paint47_linear_44_712" x1="-122.262" y1="127.316" x2="495.688" y2="799.903" gradientUnits="userSpaceOnUse">
<stop stop-color="#F60C86"/>
<stop offset="1" stop-color="#1E0FF2"/>
</linearGradient>
<linearGradient id="paint48_linear_44_712" x1="-127.976" y1="132.566" x2="489.973" y2="805.151" gradientUnits="userSpaceOnUse">
<stop stop-color="#F60C86"/>
<stop offset="1" stop-color="#1E0FF2"/>
</linearGradient>
<linearGradient id="paint49_linear_44_712" x1="-133.69" y1="137.815" x2="484.259" y2="810.399" gradientUnits="userSpaceOnUse">
<stop stop-color="#F60C86"/>
<stop offset="1" stop-color="#1E0FF2"/>
</linearGradient>
<linearGradient id="paint50_linear_44_712" x1="-139.403" y1="143.065" x2="478.547" y2="815.652" gradientUnits="userSpaceOnUse">
<stop stop-color="#F60C86"/>
<stop offset="1" stop-color="#1E0FF2"/>
</linearGradient>
<linearGradient id="paint51_linear_44_712" x1="-145.118" y1="148.315" x2="472.831" y2="820.899" gradientUnits="userSpaceOnUse">
<stop stop-color="#F60C86"/>
<stop offset="1" stop-color="#1E0FF2"/>
</linearGradient>
</defs>
</svg>
