<svg width="666" height="292" viewBox="0 0 666 292" fill="none" xmlns="http://www.w3.org/2000/svg">
<g opacity="0.1">
<mask id="mask0_20_182" style="mask-type:luminance" maskUnits="userSpaceOnUse" x="0" y="0" width="666" height="292">
<path d="M660.202 249.581C675.404 187.365 658.324 122.142 612.234 66.3894C592.008 41.9277 564.636 18.3311 525.261 6.55741C485.885 -5.21631 432.583 -1.52955 407.002 20.8217C387.065 38.2431 385.853 63.9949 358.549 76.7725C337.078 86.8204 306.324 84.7207 282.628 76.9456C258.932 69.1705 240.122 56.6748 219.761 45.7341C196.947 33.4776 171.103 22.8168 142.009 18.4721C112.915 14.1274 80.098 16.8765 57.1254 29.0112C36.4783 39.9177 26.1766 56.7025 18.5437 73.0495C2.97513 106.384 -4.94714 141.78 4.38864 176.042C13.7211 210.301 41.7755 243.382 87.0207 262.982C132.266 282.582 195.415 286.572 242.313 268.604C274.786 256.162 296.413 235.28 321.873 217.436C347.332 199.591 381.889 183.488 419.599 186.068C457.214 188.64 485.39 208.834 505.849 229.034C526.307 249.235 544.41 271.791 576.358 284.652C586.781 288.847 598.759 291.889 611.1 291.756C644.243 291.406 656.002 266.765 660.202 249.581Z" fill="white"/>
</mask>
<g mask="url(#mask0_20_182)">
<g opacity="0.44">
<path d="M662.777 229.353C662.777 201.327 662.793 173.308 662.812 145.284C662.837 96.9623 662.872 48.6423 662.812 0.3203L665.966 0.318359C666.026 48.6403 665.994 96.9623 665.966 145.284C665.931 194.031 665.906 242.771 665.966 291.51L662.812 291.51C662.787 270.793 662.777 250.07 662.777 229.353Z" fill="url(#paint0_linear_20_182)"/>
<path d="M649.668 228.803C649.668 200.56 649.744 172.398 649.819 144.772C649.945 97.4301 650.075 48.4753 649.826 0.32223L652.98 0.316406C653.232 48.4734 653.1 97.4301 652.973 144.774C652.847 192.863 652.715 242.588 652.98 291.504L649.826 291.512C649.709 270.696 649.668 249.724 649.668 228.803Z" fill="url(#paint1_linear_20_182)"/>
<path d="M639.989 291.51L639.989 0.320312L636.835 0.320312L636.835 291.51L639.989 291.51Z" fill="url(#paint2_linear_20_182)"/>
<path d="M623.478 60.9421C623.478 40.7296 623.576 20.4706 623.847 0.3125L627.002 0.32803C626.352 48.648 626.689 97.5834 627.014 144.908C627.345 192.896 627.686 242.522 627.002 291.516L623.847 291.5C624.535 242.516 624.188 192.9 623.863 144.915C623.671 117.328 623.478 89.1836 623.478 60.9421Z" fill="url(#paint3_linear_20_182)"/>
<path d="M609.923 60.9633C609.923 40.78 610.172 20.5171 610.86 0.298828L614.014 0.339594C612.364 48.8227 613.222 97.6222 614.055 144.816C614.891 192.736 615.768 242.285 614.014 291.529L610.86 291.488C612.613 242.274 611.737 192.742 610.901 144.838C610.415 117.301 609.923 89.2126 609.923 60.9633Z" fill="url(#paint4_linear_20_182)"/>
<path d="M590.585 91.8318C590.585 73.9158 592.487 56.1921 594.439 37.9578C595.745 25.7647 597.098 13.1562 597.874 0.283691L601.028 0.355518C600.246 13.2572 598.893 25.8793 597.587 38.0859C593.695 74.4186 590.02 108.738 601.227 146.473C612.434 184.199 608.652 217.896 604.649 253.576C603.274 265.82 601.855 278.481 601.028 291.547L597.874 291.471C598.707 278.378 600.129 265.701 601.505 253.442C605.495 217.892 609.267 184.316 598.123 146.822C592.487 127.842 590.585 109.74 590.585 91.8318Z" fill="url(#paint5_linear_20_182)"/>
<path d="M575.17 90.5407C575.17 72.3705 577.722 54.639 580.346 36.3969C582.012 24.7979 583.737 12.8047 584.888 0.26416L588.036 0.374812C586.882 12.9464 585.156 24.9551 583.488 36.5697C578.271 72.8422 573.344 107.1 588.307 146.692C603.318 186.406 598.489 218.163 592.897 254.937C591.118 266.623 589.282 278.704 588.036 291.566L584.888 291.452C586.137 278.554 587.976 266.456 589.755 254.754C595.325 218.15 600.126 186.536 585.232 147.131C577.706 127.213 575.17 108.659 575.17 90.5407Z" fill="url(#paint6_linear_20_182)"/>
<path d="M559.393 89.6107C559.393 71.6909 562.616 54.3069 566.067 35.6572C568.152 24.4017 570.309 12.7619 571.902 0.244628L575.044 0.396047C573.451 12.9463 571.294 24.6036 569.202 35.8765C562.295 73.1741 556.324 105.384 575.385 146.93C594.568 188.745 588.462 219.617 581.387 255.362C579.129 266.767 576.794 278.56 575.041 291.588L571.899 291.428C573.659 278.364 575.993 266.551 578.255 255.127C585.286 219.59 591.361 188.901 572.347 147.457C562.686 126.388 559.393 107.725 559.393 89.6107Z" fill="url(#paint7_linear_20_182)"/>
<path d="M543.375 88.7293C543.375 71.2113 547.261 54.3669 551.595 35.5716C554.16 24.4559 556.812 12.9617 558.913 0.221191L562.048 0.417259C559.941 13.1966 557.285 24.7122 554.718 35.8453C545.981 73.7291 539.076 103.652 562.465 147.183C586.096 191.154 579.059 219.378 570.154 255.115C567.331 266.438 564.414 278.148 562.051 291.613L558.916 291.405C561.288 277.898 564.212 266.167 567.038 254.82C576.223 217.959 582.86 191.321 559.474 147.792C547.495 125.499 543.375 106.758 543.375 88.7293Z" fill="url(#paint8_linear_20_182)"/>
<path d="M520.608 82.6457C520.608 77.5829 521.151 72.2929 522.321 66.6691C524.646 55.4913 529.43 44.4203 534.058 33.7122C538.751 22.8489 543.605 11.6148 545.936 0.198241L549.065 0.440899C546.709 11.9856 541.826 23.2857 537.105 34.2111C532.506 44.8551 527.749 55.864 525.453 66.9137C519.072 97.6167 531.739 118.33 549.28 146.989L549.557 147.443C551.38 150.423 553.226 153.35 555.046 156.245C567.71 176.36 579.673 195.357 575.945 218.356C573.813 231.51 567.883 244.433 562.152 256.929C556.985 268.184 551.645 279.824 549.065 291.636L545.943 291.378C548.551 279.428 553.923 267.722 559.118 256.401C564.817 243.984 570.706 231.147 572.813 218.162C576.447 195.631 564.631 176.838 552.109 156.946C550.286 154.045 548.438 151.112 546.611 148.126L546.334 147.672C531.815 123.969 520.608 105.656 520.608 82.6457Z" fill="url(#paint9_linear_20_182)"/>
<path d="M503.69 82.2709C503.69 77.0547 504.343 71.5726 505.759 65.6944C508.437 54.5768 513.96 43.632 519.3 33.0482C524.668 22.4198 530.213 11.4322 532.951 0.174803L536.067 0.46211C533.298 11.8651 527.715 22.9245 522.315 33.6228C517.01 44.1367 511.521 55.0097 508.878 65.9778C501.561 96.3916 515.098 116.206 533.85 143.623L536.635 147.701C539.054 151.254 541.534 154.736 543.981 158.176C558.143 178.078 571.527 196.879 567.079 219.955C564.584 232.948 557.752 245.58 551.141 257.798C545.221 268.743 539.102 280.061 536.064 291.658L532.954 291.351C536.029 279.597 542.193 268.201 548.151 257.183C554.709 245.06 561.49 232.523 563.95 219.726C568.268 197.172 555.074 178.606 541.092 158.953C538.638 155.503 536.156 152.011 533.727 148.449L530.942 144.372C515.59 121.931 503.69 104.527 503.69 82.2709Z" fill="url(#paint10_linear_20_182)"/>
<path d="M486.966 81.57C486.966 76.2781 487.71 70.7164 489.341 64.7625C492.363 53.7225 498.589 42.9349 504.607 32.5026C510.622 22.078 516.842 11.3001 519.968 0.155272L523.078 0.485287C519.902 11.7932 513.638 22.6506 507.579 33.1529C501.605 43.5076 495.426 54.2137 492.451 65.0848C484.165 95.3821 498.608 114.589 518.625 141.173C520.287 143.384 521.987 145.641 523.709 147.957C526.665 151.921 529.771 155.858 532.774 159.667C548.438 179.52 563.231 198.261 558.046 221.498C555.185 234.32 547.504 246.638 540.079 258.547C533.427 269.216 526.548 280.251 523.072 291.689L519.971 291.331C523.495 279.719 530.431 268.601 537.133 257.85C544.495 246.044 552.109 233.835 554.923 221.232C559.982 198.587 545.385 180.095 529.939 160.517C526.926 156.699 523.813 152.75 520.845 148.765C519.123 146.453 517.423 144.197 515.761 141.988C500.031 121.09 486.966 103.731 486.966 81.57Z" fill="url(#paint11_linear_20_182)"/>
<path d="M470.416 81.234C470.416 75.8004 471.271 70.064 473.16 63.8927C476.507 52.9478 483.364 42.3408 490 32.0812C496.634 21.8255 503.491 11.2184 506.982 0.133787L510.08 0.502628C506.531 11.7658 499.617 22.4583 492.927 32.7975C486.351 42.9697 479.547 53.4894 476.258 64.2479C466.997 94.5278 483.168 114.321 503.639 139.381C505.967 142.234 508.358 145.162 510.783 148.186C514.199 152.449 517.852 156.699 521.384 160.81C538.505 180.72 554.683 199.525 548.725 222.921C545.508 235.582 537.067 247.565 528.901 259.157C521.555 269.583 513.96 280.367 510.074 291.708L506.986 291.306C510.935 279.775 518.596 268.902 526.002 258.386C534.09 246.907 542.451 235.038 545.605 222.622C551.387 199.867 535.458 181.335 518.596 161.717C515.054 157.596 511.389 153.335 507.954 149.044C505.532 146.024 503.147 143.102 500.819 140.254C484.222 119.935 470.416 103.029 470.416 81.234Z" fill="url(#paint12_linear_20_182)"/>
<path d="M454.21 80.9311C454.21 75.3674 455.178 69.4776 457.314 63.1122C460.954 52.2644 468.366 41.8495 475.532 31.7782C482.74 21.6565 490.187 11.1931 494.003 0.118162L497.091 0.521945C493.208 11.791 485.692 22.3476 478.425 32.5548C470.997 42.9949 463.979 52.8546 460.402 63.5024C450.226 93.8269 467.313 113.366 488.944 138.107C491.846 141.427 494.833 144.845 497.855 148.398C501.649 152.865 505.781 157.339 509.771 161.67C527.431 180.819 545.704 200.612 539.014 224.198C535.468 236.708 526.368 248.363 517.568 259.634C509.588 269.857 501.337 280.423 497.085 291.725L494.01 291.288C498.34 279.775 506.671 269.108 514.723 258.794C523.832 247.127 532.434 236.11 535.907 223.864C542.376 200.987 525.214 182.35 507.027 162.627C503.021 158.285 498.88 153.793 495.057 149.297C492.045 145.752 489.064 142.341 486.165 139.027C468.732 119.089 454.21 102.475 454.21 80.9311Z" fill="url(#paint13_linear_20_182)"/>
<path d="M438.449 80.6791C438.449 75.0009 439.518 68.9752 441.887 62.4428C445.785 51.6921 453.646 41.4791 461.247 31.6039C468.956 21.587 476.93 11.2284 481.024 0.103025L484.099 0.532045C479.933 11.8671 471.883 22.3227 464.102 32.4348C456.229 42.6652 448.788 52.3269 444.972 62.866C433.957 93.2527 451.87 112.65 474.552 137.211C477.93 140.87 481.412 144.64 484.916 148.575C489.017 153.178 493.54 157.817 497.915 162.302C516.72 181.588 536.156 201.534 528.8 225.28C524.962 237.667 515.332 249.004 506.021 259.967C497.483 270.02 488.654 280.414 484.093 291.741L481.03 291.275C485.686 279.721 494.603 269.222 503.223 259.068C512.853 247.729 521.95 237.021 525.7 224.915C532.85 201.903 513.705 182.271 495.208 163.299C490.818 158.799 486.279 154.142 482.147 149.505C478.652 145.579 475.176 141.819 471.807 138.168C453.614 118.479 438.449 102.054 438.449 80.6791Z" fill="url(#paint14_linear_20_182)"/>
<path d="M423.245 80.5043C423.245 74.7271 424.402 68.5869 426.976 61.9167C431.086 51.2553 439.268 41.2481 447.185 31.5728C455.323 21.6238 463.738 11.3351 468.037 0.0971657L471.106 0.541716C466.722 12.0029 458.222 22.3945 450.002 32.4445C441.807 42.4633 434.067 51.925 430.045 62.3632C418.305 92.8275 436.921 112.153 460.486 136.622C464.23 140.511 468.088 144.518 471.958 148.709C476.286 153.395 481.108 158.137 485.776 162.725C505.512 182.122 525.917 202.177 517.968 226.122C513.887 238.409 503.882 249.449 494.204 260.126C485.202 270.057 475.898 280.326 471.103 291.753L468.047 291.267C472.945 279.598 482.351 269.22 491.451 259.18C501.45 248.146 510.893 237.725 514.877 225.734C522.605 202.554 502.509 182.828 483.105 163.755C478.421 159.153 473.576 154.393 469.22 149.67C465.359 145.49 461.511 141.493 457.777 137.614C438.953 118.076 423.245 101.765 423.245 80.5043Z" fill="url(#paint15_linear_20_182)"/>
<path d="M408.799 80.1005C408.799 74.3097 409.992 68.1715 412.663 61.5537C416.931 50.9796 425.296 41.1821 433.383 31.7068C441.862 21.783 450.624 11.5195 455.046 0.0932594L458.115 0.541692C453.598 12.2048 444.744 22.5789 436.178 32.6094C427.807 42.4128 419.899 51.6727 415.726 62.0196C403.418 92.5518 422.552 111.852 446.782 136.283C450.766 140.297 454.882 144.448 458.989 148.788C463.465 153.517 468.489 158.312 473.347 162.95C493.735 182.417 514.818 202.544 506.412 226.678C502.154 238.892 491.941 249.666 482.062 260.085C472.713 269.948 463.045 280.148 458.109 291.753L455.059 291.26C460.102 279.4 469.88 269.083 479.336 259.106C489.537 248.346 499.173 238.182 503.321 226.272C511.481 202.919 490.736 183.135 470.694 164.002C465.814 159.347 460.771 154.531 456.264 149.767C452.169 145.442 448.06 141.301 444.088 137.294C425.444 118.499 408.799 101.718 408.799 80.1005Z" fill="url(#paint16_linear_20_182)"/>
<path d="M395.025 80.1607C395.025 74.302 396.271 68.09 399.056 61.3809C403.419 50.8845 411.805 41.2908 419.918 32.0135C428.617 22.0703 437.607 11.7894 442.057 0.0991187L445.129 0.543668C440.587 12.4844 431.494 22.8799 422.7 32.9356C414.307 42.5313 406.38 51.597 402.116 61.8643C389.414 92.4664 408.856 111.761 433.475 136.186C437.566 140.243 441.795 144.436 446.006 148.821C450.555 153.56 455.668 158.361 460.61 163.006C481.314 182.463 502.719 202.592 494.019 226.915C489.66 239.084 479.425 249.637 469.527 259.844C459.967 269.704 450.078 279.899 445.126 291.755L442.07 291.273C447.136 279.146 457.141 268.826 466.821 258.85C477.037 248.313 486.692 238.36 490.938 226.499C499.347 202.961 478.318 183.195 457.97 164.072C453.009 159.411 447.877 154.587 443.291 149.811C439.099 145.444 434.878 141.258 430.797 137.211C411.9 118.462 395.025 101.726 395.025 80.1607Z" fill="url(#paint17_linear_20_182)"/>
<path d="M381.701 80.153C381.701 74.2554 382.972 67.9987 385.827 61.2334C390.236 50.7817 398.626 41.2908 406.739 32.1125C415.523 22.1752 424.607 11.8981 429.071 0.101072L432.146 0.541739C427.585 12.597 418.397 22.9905 409.511 33.0424C401.118 42.5352 393.192 51.5019 388.883 61.7226C375.938 92.4024 395.579 111.666 420.431 136.054C424.535 140.08 428.777 144.244 432.997 148.592C437.568 153.302 442.678 158.06 447.62 162.661C468.419 182.027 489.93 202.045 481.219 226.52C476.863 238.76 466.567 249.402 456.61 259.695C447.015 269.613 437.095 279.87 432.133 291.755L429.077 291.273C434.149 279.117 444.189 268.739 453.897 258.703C464.18 248.074 473.888 238.04 478.137 226.105C486.559 202.437 465.426 182.762 444.987 163.732C440.025 159.114 434.893 154.336 430.285 149.592C426.083 145.261 421.847 141.107 417.753 137.088C398.711 118.394 381.701 101.703 381.701 80.153Z" fill="url(#paint18_linear_20_182)"/>
<path d="M368.126 79.9627C368.126 74.0438 369.432 67.7502 372.362 60.9403C376.838 50.5409 385.285 41.1588 393.451 32.0873C402.358 22.1926 411.572 11.9622 416.085 0.0971656L419.161 0.539774C414.546 12.6669 405.226 23.0177 396.214 33.0288C387.767 42.409 379.79 51.2689 375.415 61.4372C362.206 92.1325 382.083 111.279 407.244 135.516C411.398 139.521 415.697 143.66 419.971 147.985C424.586 152.65 429.705 157.343 434.657 161.884C455.623 181.106 477.305 200.993 468.666 225.637C464.322 238.046 453.885 248.89 443.795 259.378C434.134 269.419 424.141 279.802 419.151 291.751L416.095 291.269C421.198 279.051 431.304 268.547 441.082 258.388C451.504 247.558 461.348 237.326 465.584 225.228C473.952 201.381 452.639 181.852 432.036 162.967C427.068 158.409 421.927 153.698 417.278 148.994C413.016 144.688 408.73 140.557 404.585 136.562C385.323 118.01 368.126 101.441 368.126 79.9627Z" fill="url(#paint19_linear_20_182)"/>
<path d="M354.322 79.6133C354.322 73.6808 355.666 67.3678 358.685 60.5209C363.239 50.1779 371.794 40.9142 380.064 31.9572C389.126 22.1383 398.5 11.9874 403.099 0.0952124L406.168 0.543645C401.468 12.7057 391.98 22.9788 382.808 32.9142C374.26 42.1741 366.182 50.9214 361.728 61.0276C348.225 91.6802 368.378 110.631 393.904 134.617C398.153 138.608 402.54 142.735 406.912 147.049C411.577 151.659 416.715 156.274 421.69 160.737C442.892 179.777 464.814 199.459 456.316 224.336C451.992 236.992 441.35 248.138 431.057 258.914C421.295 269.135 411.202 279.703 406.161 291.753L403.105 291.267C408.256 278.954 418.463 268.267 428.335 257.93C438.968 246.799 449.011 236.285 453.228 223.939C461.448 199.861 440.873 181.396 419.087 161.836C414.101 157.355 408.94 152.725 404.234 148.078C399.885 143.782 395.503 139.664 391.267 135.681C371.752 117.348 354.322 100.967 354.322 79.6133Z" fill="url(#paint20_linear_20_182)"/>
<path d="M340.325 79.128C340.325 73.1974 341.71 66.8708 344.829 59.9949C349.485 49.7159 358.181 40.5783 366.59 31.7436C375.841 22.0295 385.402 11.9835 390.111 0.0913062L393.174 0.549445C388.357 12.7192 378.674 22.8895 369.315 32.724C360.622 41.8557 352.415 50.4807 347.867 60.5151C334.023 91.092 354.51 109.775 380.456 133.425C384.828 137.407 389.344 141.526 393.836 145.838C398.574 150.386 403.743 154.909 408.74 159.283C430.229 178.098 452.438 197.559 444.139 222.683C439.846 235.662 428.936 247.189 418.382 258.336C408.497 268.78 398.277 279.577 393.174 291.753L390.117 291.267C395.331 278.834 405.664 267.918 415.657 257.359C426.561 245.84 436.859 234.961 441.048 222.294C449.11 197.968 428.236 179.724 406.159 160.397C401.144 156.006 395.959 151.465 391.183 146.884C386.711 142.592 382.203 138.484 377.844 134.51C358.033 116.453 340.325 100.317 340.325 79.128Z" fill="url(#paint21_linear_20_182)"/>
<path d="M326.178 78.53C326.178 72.6091 327.61 66.2787 330.83 59.3814C335.596 49.1723 344.469 40.1667 353.055 31.4582C362.508 21.8684 372.286 11.9504 377.127 0.0834936L380.19 0.557162C375.229 12.7056 365.328 22.7516 355.755 32.4638C346.885 41.4596 338.511 49.9565 333.865 59.9171C319.639 90.3872 340.507 108.75 366.921 132C371.437 135.976 376.105 140.086 380.748 144.395C385.565 148.872 390.769 153.296 395.797 157.572C418.63 176.991 440.202 195.34 432.105 220.733C427.853 234.093 416.624 246.075 405.767 257.662C395.737 268.362 385.369 279.428 380.19 291.751L377.134 291.265C382.423 278.688 392.902 267.506 403.036 256.691C414.262 244.714 424.863 233.402 429.014 220.361C436.836 195.773 415.665 177.773 393.245 158.71C388.192 154.414 382.972 149.974 378.118 145.467C373.5 141.175 368.845 137.077 364.337 133.111C344.185 115.377 326.178 99.5267 326.178 78.53Z" fill="url(#paint22_linear_20_182)"/>
<path d="M311.909 77.8428C311.909 71.9374 313.389 65.6128 316.716 58.6999C321.599 48.5646 330.68 39.6969 339.458 31.1223C349.135 21.6723 359.14 11.8999 364.143 0.0776342L367.193 0.566833C362.07 12.6803 351.933 22.5827 342.13 32.157C333.064 41.0111 324.501 49.3741 319.741 59.2513C305.128 89.5835 326.393 107.597 353.314 130.402C357.995 134.368 362.834 138.47 367.644 142.778C372.555 147.181 377.8 151.502 382.875 155.68C406.087 174.801 428.015 192.869 420.18 218.563C415.978 232.348 404.39 244.842 393.186 256.924C382.998 267.908 372.463 279.268 367.196 291.755L364.139 291.265C369.514 278.529 380.156 267.056 390.445 255.96C402.034 243.466 412.976 231.667 417.079 218.206C424.649 193.331 403.131 175.613 380.346 156.843C375.255 152.649 369.99 148.311 365.042 143.879C360.257 139.59 355.431 135.5 350.763 131.544C330.245 114.162 311.909 98.624 311.909 77.8428Z" fill="url(#paint23_linear_20_182)"/>
<path d="M297.548 77.0914C297.548 71.2113 299.078 64.8925 302.523 57.9661C307.528 47.9064 316.83 39.1824 325.829 30.7437C335.742 21.445 345.99 11.83 351.16 0.0639623L354.204 0.570633C348.902 12.6356 338.512 22.3827 328.466 31.8095C319.183 40.516 310.414 48.7412 305.541 58.5348C290.521 88.7157 312.206 106.354 339.654 128.682C344.517 132.639 349.545 136.727 354.532 141.033C359.538 145.352 364.83 149.567 369.95 153.639C393.584 172.448 415.915 190.219 408.339 216.228C404.198 230.467 392.224 243.514 380.642 256.132C370.287 267.419 359.572 279.088 354.21 291.753L351.16 291.263C356.623 278.354 367.439 266.57 377.898 255.177C389.875 242.126 401.189 229.801 405.235 215.888C412.556 190.737 390.647 173.293 367.455 154.827C362.316 150.739 357.005 146.511 351.964 142.161C347.003 137.878 341.991 133.798 337.143 129.855C316.237 112.849 297.548 97.6455 297.548 77.0914Z" fill="url(#paint24_linear_20_182)"/>
<path d="M283.132 76.3032C283.132 70.4483 284.716 64.1431 288.28 57.2089C293.412 47.2289 302.521 39.0309 312.164 30.3515C322.32 21.2121 332.823 11.76 338.17 0.0561497L341.207 0.582232C335.719 12.5928 325.067 22.1788 314.766 31.4483C305.256 40.0054 296.276 48.0869 291.286 57.7952C275.859 87.811 297.97 105.067 325.966 126.908C331.016 130.847 336.233 134.92 341.409 139.216C346.516 143.455 351.859 147.561 357.032 151.533C381.095 170.018 403.834 187.464 396.538 213.801C392.463 228.516 380.076 242.145 368.103 255.327C357.565 266.922 346.673 278.909 341.214 291.758L338.163 291.265C343.724 278.179 354.717 266.079 365.349 254.379C377.739 240.742 389.444 227.862 393.425 213.477C400.487 188.019 378.174 170.886 354.568 152.75C349.377 148.763 344.014 144.643 338.873 140.375C333.726 136.102 328.521 132.041 323.487 128.114C302.187 111.489 283.132 96.6244 283.132 76.3032Z" fill="url(#paint25_linear_20_182)"/>
<path d="M268.705 75.5014C268.705 69.6757 270.339 63.3801 274.023 56.4401C279.281 46.5377 288.614 38.4815 298.496 29.9516C308.902 20.9713 319.658 11.6862 325.193 0.0463841L328.218 0.59188C322.538 12.5442 311.621 21.9671 301.067 31.0775C291.33 39.4832 282.133 47.4229 277.026 57.0419C261.167 86.8966 283.722 103.762 312.274 125.114C317.513 129.032 322.929 133.085 328.294 137.368C333.498 141.528 338.905 145.531 344.131 149.403C368.633 167.56 391.781 184.713 384.76 211.337C380.761 226.532 367.961 240.755 355.581 254.509C344.869 266.415 333.792 278.723 328.234 291.754L325.184 291.261C330.839 277.995 342.015 265.58 352.824 253.57C365.636 239.334 377.736 225.887 381.65 211.027C388.406 185.276 366.775 169.222 341.706 150.644C336.463 146.759 331.041 142.741 325.796 138.554C320.462 134.296 315.065 130.257 309.839 126.349C288.125 110.112 268.705 95.5876 268.705 75.5014Z" fill="url(#paint26_linear_20_182)"/>
<path d="M254.291 74.7098C254.291 68.9093 255.978 62.6293 259.785 55.6796C265.166 45.8587 274.717 37.9442 284.83 29.5637C295.478 20.7407 306.489 11.6167 312.205 0.0371067L315.223 0.602015C309.35 12.5039 298.172 21.7657 287.362 30.7227C277.405 38.975 267.993 46.7711 262.772 56.3008C246.506 86.0002 269.488 102.493 298.585 123.371C304.013 127.264 309.621 131.29 315.17 135.551C320.478 139.631 325.938 143.535 331.221 147.311C357.237 165.91 379.698 181.98 372.957 208.909C369.037 224.579 355.821 239.393 343.04 253.72C332.149 265.924 320.891 278.545 315.239 291.757L312.189 291.264C317.939 277.82 329.294 265.092 340.274 252.786C352.925 238.607 366.003 223.946 369.841 208.614C376.351 182.565 354.335 166.813 328.83 148.577C323.528 144.789 318.049 140.872 312.706 136.764C307.196 132.528 301.6 128.516 296.194 124.635C274.077 108.767 254.291 94.5728 254.291 74.7098Z" fill="url(#paint27_linear_20_182)"/>
<path d="M239.927 73.9507C239.927 68.1774 241.668 61.9052 245.591 54.9496C251.092 45.2025 260.855 37.4278 271.188 29.1949C282.073 20.5232 293.33 11.5565 299.225 0.0292941L302.231 0.611674C296.169 12.4709 284.738 21.5773 273.683 30.3829C263.51 38.4857 253.903 46.1401 248.572 55.5863C231.883 85.144 255.3 101.286 284.94 121.717C290.542 125.579 296.336 129.572 302.055 133.808C307.467 137.816 312.99 141.629 318.33 145.317C344.768 163.575 367.602 179.348 361.113 206.578C357.265 222.7 343.652 238.083 330.483 252.961C319.428 265.455 307.991 278.372 302.25 291.759L299.2 291.262C305.042 277.648 316.567 264.624 327.714 252.031C340.75 237.302 354.228 222.075 357.991 206.296C364.29 179.944 341.889 164.505 315.974 146.608C310.618 142.908 305.076 139.082 299.626 135.046C293.945 130.839 288.17 126.858 282.587 123.008C260.072 107.49 239.927 93.606 239.927 73.9507Z" fill="url(#paint28_linear_20_182)"/>
<path d="M225.651 73.2499C225.651 67.4979 227.436 61.2354 231.483 54.2662C237.094 44.591 247.046 36.9521 257.581 28.8628C268.69 20.3329 280.181 11.5118 286.24 0.0195285L289.239 0.619379C283 12.4514 271.33 21.4123 260.041 30.0781C249.676 38.0373 239.886 45.5519 234.451 54.9185C217.362 84.3616 241.189 100.179 271.352 120.201C277.115 124.028 283.079 127.986 288.949 132.187C294.46 136.129 300.042 139.859 305.439 143.467C332.278 161.403 355.468 176.898 349.191 204.406C345.422 220.949 331.43 236.865 317.901 252.256C306.685 265.014 295.09 278.207 289.265 291.757L286.215 291.26C292.138 277.486 303.824 264.193 315.129 251.334C328.525 236.093 342.378 220.334 346.068 204.136C352.14 177.523 329.417 162.358 303.121 144.782C297.705 141.163 292.107 137.42 286.562 133.454C280.726 129.281 274.787 125.336 269.04 121.521C246.141 106.321 225.651 92.7188 225.651 73.2499Z" fill="url(#paint29_linear_20_182)"/>
<path d="M211.49 72.6364C211.49 66.898 213.329 60.6374 217.483 53.6527C223.204 44.0435 233.317 36.5347 244.025 28.5832C255.342 20.1795 267.044 11.4904 273.258 0.0117159L276.251 0.625156C269.852 12.4494 257.957 21.2802 246.454 29.8218C235.925 37.6392 225.98 45.0258 220.448 54.3205C202.973 83.6822 227.188 99.2142 257.844 118.881C263.748 122.671 269.855 126.588 275.857 130.75C281.453 134.631 287.092 138.286 292.543 141.821C319.741 159.457 343.24 174.685 337.159 202.462C333.459 219.382 319.133 235.774 305.279 251.629C293.924 264.624 282.181 278.061 276.28 291.759L273.23 291.262C279.226 277.343 291.06 263.804 302.501 250.709C316.221 235.008 330.409 218.773 334.033 202.204C339.9 175.341 316.89 160.434 290.253 143.159C284.783 139.612 279.128 135.945 273.495 132.039C267.53 127.904 261.449 124 255.563 120.226C232.304 105.3 211.49 91.9442 211.49 72.6364Z" fill="url(#paint30_linear_20_182)"/>
<path d="M197.481 72.1277C197.481 66.3991 199.364 60.1346 203.628 53.1266C209.441 43.5737 219.686 36.1852 230.53 28.3658C242.03 20.0747 253.925 11.5001 260.268 0.00780963L263.255 0.630956C256.716 12.4746 244.623 21.1948 232.93 29.6257C222.269 37.3111 212.201 44.5734 206.577 53.808C188.75 83.1133 213.318 98.4105 244.418 117.786C250.436 121.537 256.666 125.415 262.772 129.537C268.45 133.367 274.14 136.96 279.641 140.435C307.145 157.807 330.893 172.829 324.976 200.81C321.33 218.051 306.723 234.846 292.595 251.089C281.117 264.286 269.254 277.931 263.283 291.757L260.233 291.26C266.295 277.215 278.253 263.467 289.813 250.173C303.805 234.084 318.273 217.447 321.844 200.558C327.562 173.481 305.417 159.5 277.376 141.788C271.859 138.304 266.15 134.699 260.441 130.843C254.373 126.749 248.168 122.886 242.169 119.149C218.595 104.458 197.481 91.3055 197.481 72.1277Z" fill="url(#paint31_linear_20_182)"/>
<path d="M183.663 71.755C183.663 66.0224 185.587 59.7444 189.953 52.7073C195.848 43.197 206.184 35.9212 217.129 28.2202C228.781 20.0183 240.836 11.5389 247.286 0.00390336L250.267 0.634815C243.618 12.5289 231.358 21.1559 219.504 29.4975C208.752 37.0646 198.595 44.2123 192.895 53.3984C174.743 82.6862 200.866 98.5736 231.115 116.973C237.221 120.685 243.533 124.524 249.715 128.603C255.456 132.39 261.187 135.931 266.729 139.354C294.476 156.503 318.445 171.326 312.628 199.508C309.02 217.002 294.195 234.113 279.856 250.662C268.284 264.016 256.32 277.824 250.302 291.759L247.251 291.258C253.364 277.11 265.416 263.201 277.071 249.748C291.278 233.356 305.964 216.403 309.496 199.265C315.114 172 292.773 158.203 264.489 140.722C258.931 137.286 253.185 133.736 247.409 129.925C241.268 125.874 234.982 122.049 228.897 118.351C205.033 103.838 183.663 90.8415 183.663 71.755Z" fill="url(#paint32_linear_20_182)"/>
<path d="M170.068 71.5395C170.068 65.7953 172.033 59.4901 176.487 52.4142C182.454 42.933 192.835 35.76 203.824 28.1658C215.595 20.0319 227.771 11.6204 234.297 0.00195021L237.277 0.636744C230.543 12.6202 218.157 21.1811 206.18 29.4568C195.383 36.917 185.189 43.9619 179.426 53.1149C160.971 82.4358 187.378 98.2163 217.961 116.489C224.109 120.162 230.467 123.961 236.687 127.995C242.475 131.75 248.235 135.25 253.802 138.635C282.877 156.311 305.846 170.27 300.074 198.632C296.485 216.296 281.518 233.614 267.04 250.359C255.404 263.822 243.371 277.741 237.315 291.757L234.265 291.256C240.416 277.026 252.534 263.004 264.255 249.447C278.597 232.855 293.428 215.698 296.942 198.388C302.518 170.996 280.039 157.314 251.585 140.016C245.999 136.618 240.22 133.107 234.401 129.331C228.225 125.326 221.888 121.541 215.763 117.881C191.652 103.477 170.068 90.5794 170.068 71.5395Z" fill="url(#paint33_linear_20_182)"/>
<path d="M156.723 71.5065C156.723 65.7312 158.723 59.393 163.255 52.2666C169.28 42.801 179.654 35.7135 190.64 28.2124C202.49 20.1173 214.744 11.7486 221.311 0.00390333L224.292 0.634815C217.517 12.7541 205.045 21.2724 192.984 29.5111C182.196 36.8782 172.011 43.8377 166.195 52.9752C147.472 82.3776 174.106 98.1348 204.944 116.377C211.098 120.017 217.46 123.779 223.677 127.77C229.487 131.501 235.256 134.972 240.839 138.333C270.006 155.889 293.047 169.748 287.275 198.238C283.679 215.983 268.662 233.379 254.134 250.204C242.47 263.719 230.405 277.694 224.327 291.759L221.277 291.258C227.446 276.98 239.599 262.905 251.349 249.293C265.741 232.624 280.619 215.387 284.143 197.999C289.732 170.451 267.173 156.899 238.631 139.719C233.035 136.349 227.244 132.866 221.396 129.114C215.224 125.151 208.887 121.401 202.758 117.777C178.474 103.411 156.723 90.5445 156.723 71.5065Z" fill="url(#paint34_linear_20_182)"/>
<path d="M144.819 71.5764C144.819 65.8632 146.74 59.5968 151.092 52.5675C156.965 43.0825 167.324 35.76 178.294 28.0105C189.883 19.8222 201.862 11.3564 208.325 -2.88644e-06L211.299 0.642556C204.638 12.3503 192.453 20.9598 180.672 29.284C169.891 36.9015 159.71 44.0958 154.035 53.2586C135.914 82.529 160.766 97.5194 192.232 116.497C198.285 120.147 204.543 123.923 210.697 127.937C216.362 131.637 221.992 135.093 227.436 138.432C256.281 156.13 279.08 170.117 273.519 198.349C270.037 216.109 255.054 233.713 240.564 250.734C229.162 264.128 217.368 277.983 211.331 291.76L208.287 291.256C214.413 277.271 226.285 263.321 237.769 249.833C252.127 232.965 266.974 215.523 270.39 198.116C275.739 170.81 253.443 157.132 225.209 139.804C219.75 136.453 214.104 132.988 208.401 129.265C202.291 125.278 196.058 121.517 190.028 117.879C166.173 103.497 144.819 90.6182 144.819 71.5764Z" fill="url(#paint35_linear_20_182)"/>
<path d="M133.978 71.9627C133.978 66.3155 135.789 60.1326 139.886 53.2101C145.532 43.6668 155.691 36.0687 166.444 28.026C177.591 19.6902 189.116 11.0691 195.333 -2.8032e-06L198.314 0.634791C191.914 12.032 180.203 20.789 168.879 29.2607C158.3 37.1713 148.311 44.6433 142.848 53.874C125.594 83.0356 149.62 98.0552 180.035 117.076C185.82 120.692 191.801 124.433 197.734 128.424C203.127 132.055 208.477 135.456 213.653 138.742C241.757 156.604 263.943 170.709 258.688 198.632C255.338 216.356 240.712 234.052 226.566 251.169C215.583 264.457 204.225 278.199 198.345 291.758L195.295 291.258C201.266 277.498 212.7 263.665 223.752 250.289C237.773 233.326 252.269 215.787 255.55 198.409C260.663 171.392 238.908 157.586 211.382 140.093C206.193 136.795 200.825 133.384 195.403 129.735C189.511 125.769 183.549 122.041 177.783 118.437C154.67 103.982 133.978 91.0453 133.978 71.9627Z" fill="url(#paint36_linear_20_182)"/>
<path d="M123.898 72.9218C123.898 67.2921 125.623 61.1111 129.496 54.1478C134.852 44.5152 144.63 36.622 154.979 28.2649C165.552 19.7292 176.478 10.9042 182.341 0.0156223L185.335 0.625179C179.31 11.8205 168.214 20.7774 157.486 29.4394C147.298 37.6684 137.672 45.4412 132.477 54.7768C116.302 83.855 139.255 98.9696 168.312 118.105C173.677 121.638 179.225 125.291 184.78 129.195C189.782 132.713 194.731 136.019 199.522 139.214C226.55 157.264 247.898 171.521 242.924 199.065C239.735 216.702 225.749 234.39 212.221 251.497C201.784 264.692 190.996 278.337 185.366 291.753L182.31 291.267C188.019 277.661 198.879 263.929 209.382 250.645C222.794 233.69 236.66 216.152 239.789 198.848C244.602 172.175 223.686 158.213 197.204 140.53C192.4 137.325 187.435 134.009 182.408 130.474C176.885 126.594 171.355 122.952 166.009 119.433C143.103 104.345 123.898 91.6957 123.898 72.9218Z" fill="url(#paint37_linear_20_182)"/>
<path d="M114.731 73.7857C114.731 68.2318 116.295 62.1537 119.799 55.3321C124.805 45.583 134.05 37.3715 143.831 28.6785C153.71 19.902 163.923 10.8266 169.342 0.0332006L172.354 0.605874C166.794 11.6866 156.438 20.8882 146.424 29.785C136.778 38.3538 127.669 46.4469 122.805 55.9183C107.889 84.9499 128.518 99.4842 157.06 119.598C161.857 122.977 166.816 126.472 171.837 130.205C176.335 133.551 180.776 136.714 185.069 139.769C210.741 158.046 231.013 172.478 226.364 199.617C223.358 217.129 210.246 234.719 197.563 251.73C187.782 264.847 177.669 278.409 172.38 291.739L169.317 291.277C174.679 277.768 184.855 264.119 194.696 250.918C207.271 234.053 220.273 216.608 223.228 199.413C227.751 173.13 207.861 158.961 182.684 141.041C178.379 137.976 173.928 134.805 169.408 131.443C164.415 127.73 159.473 124.245 154.688 120.875C132.943 105.555 114.731 92.7208 114.731 73.7857Z" fill="url(#paint38_linear_20_182)"/>
<path d="M106.061 75.1093C106.061 69.5845 107.493 63.5374 110.672 56.7217C115.281 46.8309 124.258 37.8953 132.935 29.2566C142.031 20.2007 151.434 10.8379 156.348 0.05615L159.386 0.582233C154.352 11.6241 144.829 21.1072 135.619 30.2778C126.658 39.1979 118.195 47.6249 113.707 57.2574C100.169 86.2949 119.514 101.103 146.277 121.601C150.355 124.724 154.598 127.974 158.909 131.416C162.802 134.526 166.637 137.48 170.343 140.336C194.448 158.908 213.486 173.576 209.165 200.27C206.358 217.616 194.312 235.029 182.664 251.871C173.63 264.93 164.29 278.432 159.408 291.723L156.332 291.294C161.275 277.83 170.671 264.247 179.762 251.11C191.319 234.404 203.27 217.126 206.03 200.076C210.219 174.18 191.536 159.772 167.88 141.545C164.161 138.68 160.319 135.718 156.408 132.598C152.112 129.168 147.886 125.928 143.82 122.814C122.668 106.622 106.061 93.9008 106.061 75.1093Z" fill="url(#paint39_linear_20_182)"/>
<path d="M97.9988 76.2218C97.9988 70.7941 99.2447 64.8829 101.989 58.271C106.155 48.2249 114.319 38.9476 122.213 29.977C130.455 20.6085 138.981 10.9197 143.343 0.0874002L146.406 0.553304C141.946 11.6263 133.323 21.4238 124.989 30.9011C116.826 40.1765 109.117 48.9393 105.045 58.7505C92.9647 87.85 110.991 103.095 135.934 124.2C139.174 126.943 142.539 129.789 145.977 132.779C149.172 135.559 152.314 138.22 155.358 140.798C177.74 159.766 195.391 174.76 191.451 201.001C188.861 218.134 178.024 235.312 167.542 251.924C159.329 264.944 150.835 278.408 146.425 291.7L143.334 291.314C147.8 277.857 156.342 264.317 164.606 251.221C175.008 234.734 185.764 217.684 188.313 200.822C192.164 175.294 174.8 160.576 152.806 141.939C149.756 139.354 146.608 136.686 143.406 133.899C139.978 130.915 136.625 128.077 133.389 125.342C113.546 108.558 97.9988 95.4015 97.9988 76.2218Z" fill="url(#paint40_linear_20_182)"/>
<path d="M90.1698 77.693C90.1698 72.3138 91.2581 66.4706 93.6268 59.9324C97.3267 49.7252 104.594 40.1121 111.621 30.8173C118.964 21.1052 126.557 11.0611 130.348 0.118162L133.436 0.521945C129.572 11.6823 121.904 21.8273 114.485 31.6365C107.206 41.2613 100.333 50.3523 96.7085 60.3556C86.0978 89.6027 101.989 104.696 126.023 127.545C128.304 129.709 130.651 131.942 133.054 134.258C135.47 136.589 137.845 138.839 140.154 141.031C160.729 160.54 176.998 175.935 173.371 201.792C171.015 218.668 161.483 235.561 152.269 251.894C144.93 264.903 137.341 278.354 133.445 291.682L130.342 291.337C134.278 277.861 141.911 264.336 149.289 251.258C158.442 235.036 167.908 218.262 170.232 201.627C173.762 176.43 158.546 162.033 137.511 142.091C135.196 139.895 132.818 137.639 130.395 135.306C127.998 132.994 125.654 130.765 123.38 128.603C104.231 110.401 90.1698 97.0339 90.1698 77.693Z" fill="url(#paint41_linear_20_182)"/>
<path d="M82.6249 78.8502C82.6249 73.5875 83.5207 67.9267 85.4605 61.6662C88.6715 51.3056 94.983 41.3858 101.086 31.792C107.505 21.7033 114.145 11.2709 117.343 0.151366L120.447 0.491087C117.192 11.8009 110.498 22.3245 104.023 32.5006C97.97 42.0109 91.7153 51.8453 88.5579 62.0311C79.3982 91.5655 94.1598 107.598 116.495 131.866L120.122 135.813C121.708 137.544 123.273 139.235 124.803 140.893C143.523 161.137 158.322 177.131 155.054 202.616C152.947 219.18 144.775 235.739 136.871 251.753C130.439 264.785 123.79 278.261 120.45 291.659L117.334 291.364C120.705 277.832 127.389 264.288 133.855 251.19C141.706 235.277 149.831 218.821 151.913 202.466C155.083 177.583 141.233 162.591 122.062 141.856C120.529 140.196 118.964 138.503 117.375 136.768L113.75 132.823C95.7716 113.284 82.6249 99.0006 82.6249 78.8502Z" fill="url(#paint42_linear_20_182)"/>
<path d="M75.1043 80.003C75.1043 74.8645 75.8235 69.3921 77.369 63.4207C80.0879 52.9302 85.4154 42.7424 90.5662 32.8905C96.0545 22.3921 101.732 11.5366 104.35 0.180175L107.473 0.453893C104.814 11.9753 99.0982 22.9104 93.5689 33.4864C88.4529 43.2665 83.1633 53.3825 80.4885 63.7255C72.6914 93.7957 86.4279 111.139 107.208 137.395C142.102 181.479 132.252 211.075 119.774 248.544C115.342 261.855 110.759 275.616 107.479 291.628L104.35 291.385C107.646 275.298 112.242 261.498 116.686 248.151C129.041 211.046 138.8 181.737 104.375 138.243C87.4246 116.835 75.1043 101.273 75.1043 80.003Z" fill="url(#paint43_linear_20_182)"/>
<path d="M72.9189 85.4393C72.9189 69.7131 77.2369 54.6916 82.0534 37.9443C85.4252 26.2074 88.9138 14.0726 91.3551 0.215819L94.4903 0.423535C92.0364 14.3463 88.5384 26.5141 85.1571 38.2801C75.4043 72.1901 67.7113 98.9738 94.2853 138.968C122.471 181.394 113.952 213.074 104.095 249.752C100.575 262.848 96.9348 276.39 94.4935 291.603L91.3519 291.413C93.8059 276.136 97.4584 262.562 100.985 249.435C111.173 211.546 119.216 181.613 91.3645 139.703C77.6217 119.019 72.9189 101.845 72.9189 85.4393Z" fill="url(#paint44_linear_20_182)"/>
<path d="M64.2229 87.4365C64.2229 70.9824 67.6831 55.0543 71.3924 37.9711C73.982 26.044 76.6599 13.7092 78.3663 0.242675L81.5079 0.394094C79.7983 13.915 77.1141 26.275 74.5182 38.2293C67.0901 72.4655 60.665 102.033 81.3565 140.485C103.19 181.071 96.4934 213.263 88.7373 250.538C86.031 263.548 83.2301 277.001 81.511 291.58L78.3632 291.44C80.0916 276.809 82.8957 263.331 85.6083 250.293C93.3203 213.25 99.9693 181.264 78.3632 141.099C67.8093 121.484 64.2229 104.188 64.2229 87.4365Z" fill="url(#paint45_linear_20_182)"/>
<path d="M55.0251 89.4575C55.0251 72.4695 57.6336 55.8659 60.3178 38.7886C62.2577 26.4402 64.2638 13.6725 65.374 0.270019L68.5219 0.369024C67.4085 13.8162 65.4024 26.6072 63.4594 38.9769C58.1257 72.9413 53.0884 105.021 68.4209 141.905C84.4883 180.544 79.2682 214.553 73.7484 250.557C71.7297 263.711 69.6448 277.312 68.5219 291.557L65.374 291.462C66.4969 277.174 68.585 263.55 70.6068 250.375C76.1046 214.541 81.2932 180.693 65.3645 142.386C57.6273 123.789 55.0251 106.43 55.0251 89.4575Z" fill="url(#paint46_linear_20_182)"/>
<path d="M45.2061 91.7848C45.2061 74.8375 47.0135 58.0203 48.8776 40.7217C50.2875 27.6221 51.7479 14.0759 52.3819 0.291015L55.5361 0.34537C54.8989 14.1691 53.4354 27.7327 52.0255 40.8499C48.313 75.2918 44.815 107.823 55.4699 143.174C66.5253 179.839 62.9295 213.652 59.1255 249.448C57.6778 263.084 56.1795 277.183 55.5361 291.535L52.3819 291.483C53.0253 277.096 54.5267 262.975 55.9777 249.322C59.7721 213.648 63.349 179.955 52.3693 143.529C47.0103 125.749 45.2061 108.703 45.2061 91.7848Z" fill="url(#paint47_linear_20_182)"/>
<path d="M38.8827 62.3941C38.8827 41.7197 39.0184 20.9753 39.3937 0.310547L42.5479 0.331901C41.6584 49.2032 42.1032 98.5482 42.5416 146.272C42.9737 193.761 43.4216 242.868 42.5479 291.522L39.3937 291.498C40.2643 242.866 39.8195 193.765 39.3874 146.282C39.1351 118.728 38.8827 90.6279 38.8827 62.3941Z" fill="url(#paint48_linear_20_182)"/>
<path d="M26.4075 97.4418L26.4075 0.320312L29.5616 0.320312L29.5616 291.51L26.4074 291.51L26.4075 97.4418Z" fill="url(#paint49_linear_20_182)"/>
<path d="M13.2204 230.05C13.2204 201.806 13.3182 173.644 13.4192 146.018C13.5895 98.2668 13.763 48.8888 13.4192 0.322206L16.5734 0.3125C16.9172 48.8888 16.7468 98.2668 16.5733 146.022C16.403 193.701 16.2295 243.004 16.5733 291.502L13.4192 291.51C13.2741 271.111 13.2204 250.557 13.2204 230.05Z" fill="url(#paint50_linear_20_182)"/>
<path d="M0.385533 229.962C0.385535 201.944 0.410767 173.933 0.432848 145.913C0.4707 97.3816 0.511707 48.85 0.432854 0.3203L3.58704 0.318359C3.66589 48.85 3.62488 97.3835 3.58703 145.913C3.54918 194.445 3.50817 242.978 3.58703 291.506L0.432842 291.51C0.398146 270.997 0.385532 250.477 0.385533 229.962Z" fill="url(#paint51_linear_20_182)"/>
</g>
</g>
</g>
<defs>
<linearGradient id="paint0_linear_20_182" x1="105.309" y1="-84.5813" x2="540.376" y2="388.951" gradientUnits="userSpaceOnUse">
<stop stop-color="#F60C86"/>
<stop offset="1" stop-color="#F9C971"/>
</linearGradient>
<linearGradient id="paint1_linear_20_182" x1="101.284" y1="-80.8857" x2="536.351" y2="392.647" gradientUnits="userSpaceOnUse">
<stop stop-color="#F60C86"/>
<stop offset="1" stop-color="#F9C971"/>
</linearGradient>
<linearGradient id="paint2_linear_20_182" x1="97.2637" y1="-77.189" x2="532.33" y2="396.343" gradientUnits="userSpaceOnUse">
<stop stop-color="#F60C86"/>
<stop offset="1" stop-color="#F9C971"/>
</linearGradient>
<linearGradient id="paint3_linear_20_182" x1="93.2384" y1="-73.494" x2="528.306" y2="400.039" gradientUnits="userSpaceOnUse">
<stop stop-color="#F60C86"/>
<stop offset="1" stop-color="#F9C971"/>
</linearGradient>
<linearGradient id="paint4_linear_20_182" x1="89.218" y1="-69.7971" x2="524.285" y2="403.735" gradientUnits="userSpaceOnUse">
<stop stop-color="#F60C86"/>
<stop offset="1" stop-color="#F9C971"/>
</linearGradient>
<linearGradient id="paint5_linear_20_182" x1="85.1948" y1="-66.1021" x2="520.263" y2="407.431" gradientUnits="userSpaceOnUse">
<stop stop-color="#F60C86"/>
<stop offset="1" stop-color="#F9C971"/>
</linearGradient>
<linearGradient id="paint6_linear_20_182" x1="81.1709" y1="-62.4059" x2="516.238" y2="411.127" gradientUnits="userSpaceOnUse">
<stop stop-color="#F60C86"/>
<stop offset="1" stop-color="#F9C971"/>
</linearGradient>
<linearGradient id="paint7_linear_20_182" x1="77.1508" y1="-58.7102" x2="512.218" y2="414.823" gradientUnits="userSpaceOnUse">
<stop stop-color="#F60C86"/>
<stop offset="1" stop-color="#F9C971"/>
</linearGradient>
<linearGradient id="paint8_linear_20_182" x1="73.1275" y1="-55.0152" x2="508.195" y2="418.519" gradientUnits="userSpaceOnUse">
<stop stop-color="#F60C86"/>
<stop offset="1" stop-color="#F9C971"/>
</linearGradient>
<linearGradient id="paint9_linear_20_182" x1="69.1056" y1="-51.32" x2="504.174" y2="422.214" gradientUnits="userSpaceOnUse">
<stop stop-color="#F60C86"/>
<stop offset="1" stop-color="#F9C971"/>
</linearGradient>
<linearGradient id="paint10_linear_20_182" x1="65.0841" y1="-47.624" x2="500.151" y2="425.909" gradientUnits="userSpaceOnUse">
<stop stop-color="#F60C86"/>
<stop offset="1" stop-color="#F9C971"/>
</linearGradient>
<linearGradient id="paint11_linear_20_182" x1="61.0625" y1="-43.9305" x2="496.13" y2="429.602" gradientUnits="userSpaceOnUse">
<stop stop-color="#F60C86"/>
<stop offset="1" stop-color="#F9C971"/>
</linearGradient>
<linearGradient id="paint12_linear_20_182" x1="57.0399" y1="-40.2354" x2="492.106" y2="433.297" gradientUnits="userSpaceOnUse">
<stop stop-color="#F60C86"/>
<stop offset="1" stop-color="#F9C971"/>
</linearGradient>
<linearGradient id="paint13_linear_20_182" x1="53.017" y1="-36.5401" x2="488.085" y2="436.994" gradientUnits="userSpaceOnUse">
<stop stop-color="#F60C86"/>
<stop offset="1" stop-color="#F9C971"/>
</linearGradient>
<linearGradient id="paint14_linear_20_182" x1="48.9959" y1="-32.8437" x2="484.063" y2="440.689" gradientUnits="userSpaceOnUse">
<stop stop-color="#F60C86"/>
<stop offset="1" stop-color="#F9C971"/>
</linearGradient>
<linearGradient id="paint15_linear_20_182" x1="44.9738" y1="-29.1482" x2="480.041" y2="444.385" gradientUnits="userSpaceOnUse">
<stop stop-color="#F60C86"/>
<stop offset="1" stop-color="#F9C971"/>
</linearGradient>
<linearGradient id="paint16_linear_20_182" x1="40.9528" y1="-25.4526" x2="476.02" y2="448.081" gradientUnits="userSpaceOnUse">
<stop stop-color="#F60C86"/>
<stop offset="1" stop-color="#F9C971"/>
</linearGradient>
<linearGradient id="paint17_linear_20_182" x1="36.9275" y1="-21.756" x2="471.995" y2="451.778" gradientUnits="userSpaceOnUse">
<stop stop-color="#F60C86"/>
<stop offset="1" stop-color="#F9C971"/>
</linearGradient>
<linearGradient id="paint18_linear_20_182" x1="32.9069" y1="-18.061" x2="467.975" y2="455.473" gradientUnits="userSpaceOnUse">
<stop stop-color="#F60C86"/>
<stop offset="1" stop-color="#F9C971"/>
</linearGradient>
<linearGradient id="paint19_linear_20_182" x1="28.8824" y1="-14.3647" x2="463.95" y2="459.169" gradientUnits="userSpaceOnUse">
<stop stop-color="#F60C86"/>
<stop offset="1" stop-color="#F9C971"/>
</linearGradient>
<linearGradient id="paint20_linear_20_182" x1="24.8597" y1="-10.6674" x2="459.927" y2="462.866" gradientUnits="userSpaceOnUse">
<stop stop-color="#F60C86"/>
<stop offset="1" stop-color="#F9C971"/>
</linearGradient>
<linearGradient id="paint21_linear_20_182" x1="20.8344" y1="-6.96909" x2="455.902" y2="466.564" gradientUnits="userSpaceOnUse">
<stop stop-color="#F60C86"/>
<stop offset="1" stop-color="#F9C971"/>
</linearGradient>
<linearGradient id="paint22_linear_20_182" x1="16.8079" y1="-3.27104" x2="451.875" y2="470.261" gradientUnits="userSpaceOnUse">
<stop stop-color="#F60C86"/>
<stop offset="1" stop-color="#F9C971"/>
</linearGradient>
<linearGradient id="paint23_linear_20_182" x1="12.7826" y1="0.428409" x2="447.849" y2="473.961" gradientUnits="userSpaceOnUse">
<stop stop-color="#F60C86"/>
<stop offset="1" stop-color="#F9C971"/>
</linearGradient>
<linearGradient id="paint24_linear_20_182" x1="8.75568" y1="4.12643" x2="443.824" y2="477.661" gradientUnits="userSpaceOnUse">
<stop stop-color="#F60C86"/>
<stop offset="1" stop-color="#F9C971"/>
</linearGradient>
<linearGradient id="paint25_linear_20_182" x1="4.72795" y1="7.82605" x2="439.796" y2="481.36" gradientUnits="userSpaceOnUse">
<stop stop-color="#F60C86"/>
<stop offset="1" stop-color="#F9C971"/>
</linearGradient>
<linearGradient id="paint26_linear_20_182" x1="0.701348" y1="11.5264" x2="435.769" y2="485.059" gradientUnits="userSpaceOnUse">
<stop stop-color="#F60C86"/>
<stop offset="1" stop-color="#F9C971"/>
</linearGradient>
<linearGradient id="paint27_linear_20_182" x1="-3.3257" y1="15.2271" x2="431.741" y2="488.759" gradientUnits="userSpaceOnUse">
<stop stop-color="#F60C86"/>
<stop offset="1" stop-color="#F9C971"/>
</linearGradient>
<linearGradient id="paint28_linear_20_182" x1="-7.35141" y1="18.9259" x2="427.717" y2="492.46" gradientUnits="userSpaceOnUse">
<stop stop-color="#F60C86"/>
<stop offset="1" stop-color="#F9C971"/>
</linearGradient>
<linearGradient id="paint29_linear_20_182" x1="-11.378" y1="22.6257" x2="423.689" y2="496.159" gradientUnits="userSpaceOnUse">
<stop stop-color="#F60C86"/>
<stop offset="1" stop-color="#F9C971"/>
</linearGradient>
<linearGradient id="paint30_linear_20_182" x1="-15.4028" y1="26.3244" x2="419.664" y2="499.857" gradientUnits="userSpaceOnUse">
<stop stop-color="#F60C86"/>
<stop offset="1" stop-color="#F9C971"/>
</linearGradient>
<linearGradient id="paint31_linear_20_182" x1="-19.4298" y1="30.0229" x2="415.638" y2="503.556" gradientUnits="userSpaceOnUse">
<stop stop-color="#F60C86"/>
<stop offset="1" stop-color="#F9C971"/>
</linearGradient>
<linearGradient id="paint32_linear_20_182" x1="-23.4526" y1="33.7196" x2="411.615" y2="507.253" gradientUnits="userSpaceOnUse">
<stop stop-color="#F60C86"/>
<stop offset="1" stop-color="#F9C971"/>
</linearGradient>
<linearGradient id="paint33_linear_20_182" x1="-27.4773" y1="37.4167" x2="407.59" y2="510.949" gradientUnits="userSpaceOnUse">
<stop stop-color="#F60C86"/>
<stop offset="1" stop-color="#F9C971"/>
</linearGradient>
<linearGradient id="paint34_linear_20_182" x1="-31.4984" y1="41.1117" x2="403.569" y2="514.645" gradientUnits="userSpaceOnUse">
<stop stop-color="#F60C86"/>
<stop offset="1" stop-color="#F9C971"/>
</linearGradient>
<linearGradient id="paint35_linear_20_182" x1="-35.5227" y1="44.8086" x2="399.545" y2="518.342" gradientUnits="userSpaceOnUse">
<stop stop-color="#F60C86"/>
<stop offset="1" stop-color="#F9C971"/>
</linearGradient>
<linearGradient id="paint36_linear_20_182" x1="-39.545" y1="48.5044" x2="395.523" y2="522.038" gradientUnits="userSpaceOnUse">
<stop stop-color="#F60C86"/>
<stop offset="1" stop-color="#F9C971"/>
</linearGradient>
<linearGradient id="paint37_linear_20_182" x1="-43.5647" y1="52.1982" x2="391.502" y2="525.731" gradientUnits="userSpaceOnUse">
<stop stop-color="#F60C86"/>
<stop offset="1" stop-color="#F9C971"/>
</linearGradient>
<linearGradient id="paint38_linear_20_182" x1="-47.5852" y1="55.8915" x2="387.482" y2="529.424" gradientUnits="userSpaceOnUse">
<stop stop-color="#F60C86"/>
<stop offset="1" stop-color="#F9C971"/>
</linearGradient>
<linearGradient id="paint39_linear_20_182" x1="-51.6028" y1="59.5837" x2="383.464" y2="533.117" gradientUnits="userSpaceOnUse">
<stop stop-color="#F60C86"/>
<stop offset="1" stop-color="#F9C971"/>
</linearGradient>
<linearGradient id="paint40_linear_20_182" x1="-55.6227" y1="63.2767" x2="379.445" y2="536.811" gradientUnits="userSpaceOnUse">
<stop stop-color="#F60C86"/>
<stop offset="1" stop-color="#F9C971"/>
</linearGradient>
<linearGradient id="paint41_linear_20_182" x1="-59.6407" y1="66.9677" x2="375.426" y2="540.501" gradientUnits="userSpaceOnUse">
<stop stop-color="#F60C86"/>
<stop offset="1" stop-color="#F9C971"/>
</linearGradient>
<linearGradient id="paint42_linear_20_182" x1="-63.6608" y1="70.6614" x2="371.406" y2="544.194" gradientUnits="userSpaceOnUse">
<stop stop-color="#F60C86"/>
<stop offset="1" stop-color="#F9C971"/>
</linearGradient>
<linearGradient id="paint43_linear_20_182" x1="-67.6813" y1="74.3539" x2="367.386" y2="547.887" gradientUnits="userSpaceOnUse">
<stop stop-color="#F60C86"/>
<stop offset="1" stop-color="#F9C971"/>
</linearGradient>
<linearGradient id="paint44_linear_20_182" x1="-71.7018" y1="78.0493" x2="363.366" y2="551.583" gradientUnits="userSpaceOnUse">
<stop stop-color="#F60C86"/>
<stop offset="1" stop-color="#F9C971"/>
</linearGradient>
<linearGradient id="paint45_linear_20_182" x1="-75.7229" y1="81.7432" x2="359.345" y2="555.277" gradientUnits="userSpaceOnUse">
<stop stop-color="#F60C86"/>
<stop offset="1" stop-color="#F9C971"/>
</linearGradient>
<linearGradient id="paint46_linear_20_182" x1="-79.7443" y1="85.4381" x2="355.323" y2="558.972" gradientUnits="userSpaceOnUse">
<stop stop-color="#F60C86"/>
<stop offset="1" stop-color="#F9C971"/>
</linearGradient>
<linearGradient id="paint47_linear_20_182" x1="-83.7666" y1="89.1332" x2="351.301" y2="562.667" gradientUnits="userSpaceOnUse">
<stop stop-color="#F60C86"/>
<stop offset="1" stop-color="#F9C971"/>
</linearGradient>
<linearGradient id="paint48_linear_20_182" x1="-87.7887" y1="92.8291" x2="347.278" y2="566.362" gradientUnits="userSpaceOnUse">
<stop stop-color="#F60C86"/>
<stop offset="1" stop-color="#F9C971"/>
</linearGradient>
<linearGradient id="paint49_linear_20_182" x1="-91.8114" y1="96.5251" x2="343.255" y2="570.057" gradientUnits="userSpaceOnUse">
<stop stop-color="#F60C86"/>
<stop offset="1" stop-color="#F9C971" stop-opacity="0.46"/>
</linearGradient>
<linearGradient id="paint50_linear_20_182" x1="-95.8343" y1="100.221" x2="339.233" y2="573.756" gradientUnits="userSpaceOnUse">
<stop stop-color="#F60C86"/>
<stop offset="1" stop-color="#F9C971"/>
</linearGradient>
<linearGradient id="paint51_linear_20_182" x1="-99.8575" y1="103.918" x2="335.209" y2="577.45" gradientUnits="userSpaceOnUse">
<stop stop-color="#F60C86"/>
<stop offset="1" stop-color="#F9C971"/>
</linearGradient>
</defs>
</svg>
